<svg xmlns="http://www.w3.org/2000/svg" viewBox="-1298.306 1001.254 1271.732 898.391" width="100%" height="100%"><path d="M -743.27539,1893.5943 C -808.61941,1893.5946999999999 -826.35933,1895.5825 -867.90306,1895.1632 C -880.6694699999999,1895.0343 -893.42062,1894.228 -906.18367,1893.9080999999999 C -924.2751,1893.4546999999998 -942.36983,1893.0285 -960.46684,1892.9668 C -980.34028,1892.8988 -1000.2141,1893.2221 -1020.0842,1893.5943 C -1051.1538,1894.1761999999999 -1082.2022,1895.7734 -1113.2755,1896.1045 C -1131.8921,1896.3029 -1150.5115,1896.0355 -1169.1276,1895.7908 C -1179.2743,1895.6577 -1189.4465,1895.9459 -1199.5638000000001,1895.1632 C -1205.0353000000002,1894.7399 -1210.6028000000001,1894.4723999999999 -1215.8801,1892.9668 C -1221.2824,1891.4256 -1226.3679000000002,1888.8343 -1231.2551,1886.0637 C -1237.1363000000001,1882.7296 -1243.0473000000002,1879.1762999999999 -1247.8852000000002,1874.454 C -1252.4361000000001,1870.0118 -1256.1452000000002,1864.667 -1259.1811000000002,1859.079 C -1263.1316000000002,1851.8075 -1265.9753000000003,1843.8917 -1267.9668000000001,1835.8596 C -1272.0254000000002,1819.4904 -1272.0293000000001,1802.3747 -1274.2423000000001,1785.6556 C -1277.4157,1761.6805 -1280.3398000000002,1737.6616000000001 -1284.2832,1713.801 C -1285.8285,1704.4507999999998 -1288.1777000000002,1695.2419 -1289.6173000000001,1685.8749 C -1291.8088,1671.6159 -1293.6845,1657.2826 -1294.6378000000002,1642.8877 C -1297.2300000000002,1603.7465 -1300.3408000000002,1564.2624 -1296.5204,1525.2219 C -1295.9370000000001,1519.2602 -1295.0949,1513.1647 -1292.7551,1507.6504 C -1291.1331,1503.8279 -1288.6159,1500.3696 -1285.8090000000002,1497.3096 C -1282.0879000000002,1493.2531000000001 -1277.8841000000002,1489.4838 -1272.9442000000001,1486.9550000000002 C -1267.1588000000002,1483.9935000000003 -1260.5314,1482.8671000000002 -1254.0944000000002,1481.9695000000002 C -1248.4996,1481.1894000000002 -1242.7888000000003,1481.3093000000001 -1237.1505000000002,1481.6557000000003 C -1191.9146000000003,1484.4350000000002 -1147.3093000000001,1493.7394000000002 -1102.5408000000002,1500.7961000000003 C -1068.1490000000001,1506.2172000000003 -1033.6862,1510.5486000000003 -999.6225000000002,1517.4262000000003 C -970.6090900000002,1523.2842000000003 -941.5438100000001,1528.5375000000004 -913.3342400000001,1537.1940000000004 C -895.0548500000001,1542.8033000000005 -877.7818900000001,1551.2885000000003 -859.8598600000001,1557.9519000000005 C -826.5642800000002,1570.3312000000005 -792.9245400000001,1580.9722000000004 -759.4516900000001,1592.4672000000005 C -723.8337300000001,1604.6989000000005 -687.9065200000001,1616.0623000000005 -652.5867900000001,1629.1302000000005 C -628.4148600000001,1638.0736000000006 -604.9398000000001,1648.8375000000005 -580.7322,1657.6838000000005 C -564.9885400000001,1663.4371000000006 -548.94039,1667.5288000000005 -533.03832,1672.4313000000004 C -499.45092,1682.7861000000005 -466.27773,1694.6102000000005 -432.25011,1703.4112000000005 C -414.49222000000003,1708.0041000000006 -396.63735,1712.7305000000006 -378.40922,1714.7733000000005 C -370.13687,1715.7004000000006 -361.73369,1715.8614000000005 -353.43972,1715.1534000000006 C -347.10611,1714.6128000000006 -340.27387000000004,1714.6863000000005 -334.69704,1711.6357000000005 C -329.48375000000004,1708.7840000000006 -324.53859,1704.2292000000004 -322.47737,1698.6559000000004 C -319.5375,1690.7068000000004 -322.29811,1681.7218000000005 -322.47737,1673.2576000000004 C -323.78213,1611.6499000000003 -323.40111,1549.7924000000003 -330.30418000000003,1488.5588000000002 C -330.75691,1484.5429000000001 -331.03809,1480.4028000000003 -332.50061000000005,1476.6353000000001 C -333.71504000000004,1473.507 -335.46193000000005,1469.7445000000002 -337.83479000000005,1466.9083 C -340.42214000000007,1463.8158 -343.42572000000007,1460.075 -347.24806000000007,1458.1226000000001 C -351.70916000000005,1455.844 -356.91987000000006,1454.5454000000002 -361.9955100000001,1454.0435000000002 C -367.4222400000001,1453.5069000000003 -372.87306000000007,1454.0435000000002 -378.3118300000001,1454.0435000000002 C -396.7538100000001,1454.0335000000002 -415.1983200000001,1453.6887000000002 -433.63776000000007,1453.9945000000002 C -452.05408000000006,1454.3002000000001 -470.4444000000001,1455.6846000000003 -488.8622500000001,1455.8772000000004 C -496.8056200000001,1455.9602000000004 -504.82779000000005,1456.6879000000004 -512.6916100000001,1455.5634000000005 C -519.26921,1454.6228000000006 -526.8074600000001,1453.3832000000004 -533.08702,1450.2292000000004 C -539.21847,1447.1496000000004 -545.27133,1442.4381000000005 -550.3446700000001,1437.3644000000004 C -556.0633700000001,1431.6453000000004 -560.9193100000001,1424.4865000000004 -566.03345,1417.9104000000004 C -576.2250300000001,1404.8054000000004 -586.8582,1391.4334000000003 -597.09722,1378.0609000000004 C -615.31612,1354.2665000000004 -633.588,1329.9041000000004 -652.3217099999999,1306.2063000000003 C -682.3623399999999,1268.2055000000003 -709.0769899999999,1227.0224000000003 -743.99285,1193.4459000000002 C -745.9572,1191.5569000000003 -750.62018,1185.5711000000001 -755.28877,1184.9740000000002 C -757.85032,1184.6464 -763.52263,1182.8541000000002 -767.21224,1184.3464000000001 C -772.02915,1186.2947000000001 -777.9244199999999,1188.8202 -782.58724,1192.1908 C -799.74565,1204.594 -815.6531399999999,1219.8479 -832.4951199999999,1233.2954 C -842.57818,1241.3462 -852.0539799999999,1250.3297 -863.1073499999999,1256.9859999999999 C -869.4029699999999,1260.7771999999998 -876.3203999999998,1263.472 -883.1889899999999,1266.0855 C -888.0298799999998,1267.9275 -892.9949799999998,1269.4697999999999 -898.0255099999998,1270.703 C -904.5446299999999,1272.3011999999999 -911.1526499999999,1273.7126 -917.8399099999998,1274.2902 C -922.2011199999998,1274.6669 -926.6191099999998,1274.6646999999998 -930.9719399999998,1274.2012 C -936.7448099999998,1273.5864 -942.3999499999998,1272.0955 -948.0223599999998,1270.6489 C -952.8834299999999,1269.3982999999998 -957.7066199999998,1267.9615999999999 -962.4157599999999,1266.2242999999999 C -969.7202399999999,1263.5294999999999 -977.0819199999999,1260.7921 -983.8498799999999,1256.9434999999999 C -989.9060999999999,1253.4995999999999 -995.7585799999998,1249.5213999999999 -1000.7937999999999,1244.7062999999998 C -1005.8092999999999,1239.9099999999999 -1011.0388999999999,1234.4496 -1014.9136,1228.3899 C -1018.4997999999999,1222.7813999999998 -1021.9042,1216.5765999999999 -1024.3269,1210.1909999999998 C -1026.9294,1203.3315999999998 -1029.7052,1196.1987 -1030.9162000000001,1188.8541999999998 C -1032.295,1180.4919999999997 -1032.8072000000002,1171.9334999999999 -1032.7988,1163.4383999999998 C -1032.7888,1154.2904999999998 -1032.8168,1144.9773999999998 -1030.7174,1136.0735999999997 C -1028.5561,1126.9082999999998 -1024.5561,1118.1833999999997 -1020.049,1109.9152999999997 C -1015.6487,1101.8431999999996 -1010.5495999999999,1093.9985999999997 -1004.2277,1087.3234999999997 C -998.80068,1081.5932999999998 -992.2479000000001,1076.9621999999997 -985.59999,1072.7085999999997 C -977.2862,1067.3890999999996 -968.46749,1062.7264999999998 -959.2428500000001,1059.2162999999996 C -945.5859500000001,1054.0194999999997 -930.49561,1050.7316999999996 -916.81361,1048.1971999999996 C -867.92429,1039.1408999999996 -820.8999600000001,1031.2429999999997 -773.059,1022.1420999999996 C -745.19047,1016.8405999999995 -717.6395299999999,1009.7838999999996 -689.5947199999999,1005.5119999999996 C -679.65387,1003.9977999999996 -669.6275599999999,1003.0299999999996 -659.5963999999999,1002.3306999999996 C -650.8306899999999,1001.7195999999997 -642.0182599999999,1000.8687999999996 -633.2502999999999,1001.4464999999997 C -626.9019999999999,1001.8647999999997 -620.3918899999999,1002.3802999999997 -614.4237599999999,1004.5841999999997 C -596.5259499999999,1011.1935999999997 -580.5504399999999,1022.8952999999997 -564.9797799999999,1034.1277999999998 C -551.4242999999999,1043.9065999999998 -539.5056599999999,1055.7779999999998 -526.9947599999999,1066.8618999999997 C -509.20559999999995,1082.6219999999996 -491.47351999999995,1098.4610999999998 -474.2804699999999,1114.8694999999996 C -451.59538999999995,1136.5191999999995 -430.5800899999999,1159.8823999999995 -407.76005999999995,1181.3898999999997 C -395.83907999999997,1192.6251999999997 -383.50642999999997,1203.9229999999998 -370.4207799999999,1214.0225999999998 C -357.30042999999995,1224.1488999999997 -342.8864899999999,1233.0839999999998 -328.68862999999993,1241.9485999999997 C -302.77448999999996,1258.1282999999996 -276.4598199999999,1273.7286999999997 -249.45152999999993,1288.0072999999998 C -235.30706999999992,1295.4850999999996 -220.91216999999995,1302.5458999999998 -206.15050999999994,1308.7164999999998 C -189.63659999999993,1315.6195999999998 -172.67239999999993,1321.4374999999998 -155.63264999999996,1326.9154999999998 C -141.76377999999997,1331.3741999999997 -127.60428999999996,1334.8723999999997 -113.58672999999996,1338.8388999999997 C -95.80897599999996,1343.8693999999998 -77.53381899999997,1347.3848999999998 -60.244897999999964,1353.9000999999998 C -52.97785899999997,1356.6385999999998 -45.202389999999966,1358.9868999999999 -39.22193899999996,1363.9409999999998 C -34.727259999999966,1367.6643 -31.087955999999963,1372.6632999999997 -28.867346999999963,1378.0608999999997 C -26.976425999999964,1382.6571999999996 -26.303715999999962,1387.8518999999997 -26.670917999999965,1392.8082999999997 C -27.704945999999964,1406.7653999999998 -34.35369099999996,1419.7379999999996 -38.908162999999966,1432.9715999999996 C -44.123040999999965,1448.1240999999995 -50.108068999999965,1463.0058999999997 -56.165815999999964,1477.8414999999995 C -60.947332999999965,1489.5515999999996 -64.28478599999997,1502.0972999999994 -71.22704099999996,1512.6705999999995 C -78.94331199999996,1524.4227999999994 -90.46173399999995,1533.1801999999996 -100.09438999999996,1543.4205999999995 C -108.66184999999996,1552.5285999999994 -118.38173999999997,1560.6705999999995 -125.82397999999996,1570.7189999999994 C -130.34089999999998,1576.8176999999994 -134.02220999999997,1583.5585999999994 -137.11989999999997,1590.4868999999994 C -140.08992999999998,1597.1295999999995 -142.59749999999997,1604.0605999999993 -144.02295999999998,1611.1960999999994 C -145.15285999999998,1616.8520999999994 -145.02857999999998,1622.6913999999995 -145.27805999999998,1628.4536999999993 C -145.68739,1637.9083999999993 -146.80425,1647.4457999999993 -145.67367,1656.8415999999993 C -144.03439999999998,1670.4647999999993 -139.86688999999998,1683.5919999999992 -135.94662,1696.6910999999993 C -130.05746,1716.3689999999992 -120.88983999999999,1734.8910999999994 -115.86498999999999,1754.7395999999994 C -112.87349999999999,1766.5560999999993 -111.97464,1778.7509999999995 -110.53080999999999,1790.8237999999994 C -109.04663999999998,1803.2337999999995 -107.61907,1815.6813999999995 -107.70682999999998,1828.1630999999995 C -107.75702999999999,1835.3036999999995 -109.14062999999999,1842.4198999999996 -110.21702999999998,1849.4997999999996 C -110.77598999999998,1853.1762999999996 -110.68910999999999,1857.0981999999997 -112.26535999999999,1860.4662999999996 C -116.70003999999999,1869.9423999999997 -124.35013999999998,1877.8136999999997 -132.26315,1884.6581999999996 C -136.32668,1888.1729999999995 -141.17543,1890.3934999999997 -146.03612999999999,1892.4362999999996 C -153.75951999999998,1895.6821999999995 -161.92783999999997,1897.7234999999996 -170.17926999999997,1898.8266999999996 C -184.84660999999997,1900.7876999999996 -199.77412999999999,1898.6207999999997 -214.57172999999997,1898.5460999999996 C -267.00507999999996,1898.2812999999996 -319.43865999999997,1897.9879999999996 -371.87266999999997,1897.9516999999996 C -404.15849999999995,1897.9296999999997 -436.44539999999995,1898.4774999999995 -468.7299,1898.1836999999996 C -543.01969,1897.5076999999997 -650.86583,1893.5937999999996 -691.56123,1893.5939999999996 L -743.27539,1893.5942999999995 L -743.27539,1893.5943" fill="none" stroke="black" stroke-width="5" stroke-linejoin="round" stroke-linecap="round"/></svg>