<svg xmlns="http://www.w3.org/2000/svg" viewBox="-86.617 -61.634 1456.952 826.012" width="100%" height="100%"><path d="M 1002.532 41.715 L 1001.054 41.700 L 999.577 41.691 L 998.099 41.685 L 996.622 41.677 L 995.144 41.669 L 993.667 41.663 L 992.189 41.659 L 990.712 41.656 L 989.234 41.653 L 987.757 41.652 L 986.279 41.651 L 984.801 41.651 L 983.324 41.652 L 981.846 41.653 L 980.369 41.655 L 978.891 41.658 L 977.414 41.661 L 975.936 41.664 L 974.459 41.668 L 972.981 41.672 L 971.504 41.677 L 970.026 41.681 L 968.549 41.686 L 967.071 41.692 L 965.594 41.698 L 964.116 41.703 L 962.639 41.710 L 961.161 41.716 L 959.684 41.723 L 958.206 41.729 L 956.728 41.736 L 955.251 41.743 L 953.773 41.751 L 952.296 41.758 L 950.818 41.766 L 949.341 41.774 L 947.863 41.781 L 946.386 41.789 L 944.908 41.798 L 943.431 41.806 L 941.953 41.814 L 940.476 41.823 L 938.998 41.831 L 937.521 41.840 L 936.043 41.849 L 934.566 41.857 L 933.088 41.866 L 931.611 41.875 L 930.133 41.884 L 928.656 41.893 L 927.178 41.903 L 925.701 41.912 L 924.223 41.921 L 922.746 41.931 L 921.268 41.940 L 919.791 41.949 L 918.313 41.959 L 916.836 41.969 L 915.358 41.978 L 913.881 41.988 L 912.403 41.997 L 910.926 42.007 L 909.448 42.017 L 907.971 42.027 L 906.493 42.036 L 905.016 42.046 L 903.538 42.056 L 902.061 42.066 L 900.583 42.076 L 899.106 42.086 L 897.628 42.096 L 896.151 42.106 L 894.673 42.116 L 893.196 42.125 L 891.718 42.135 L 890.241 42.145 L 888.763 42.155 L 887.286 42.165 L 885.808 42.175 L 884.331 42.185 L 882.853 42.195 L 881.376 42.205 L 879.898 42.215 L 878.421 42.225 L 876.943 42.235 L 875.466 42.245 L 873.988 42.255 L 872.511 42.265 L 871.033 42.275 L 869.556 42.285 L 868.078 42.295 L 866.601 42.305 L 865.123 42.315 L 863.646 42.324 L 862.168 42.334 L 860.691 42.344 L 859.213 42.354 L 857.736 42.364 L 856.258 42.374 L 854.781 42.383 L 853.303 42.393 L 851.826 42.403 L 850.348 42.412 L 848.871 42.422 L 847.393 42.432 L 845.916 42.441 L 844.438 42.451 L 842.961 42.460 L 841.483 42.470 L 840.006 42.479 L 838.528 42.489 L 837.051 42.498 L 835.573 42.507 L 834.096 42.517 L 832.618 42.526 L 831.141 42.535 L 829.663 42.544 L 828.186 42.554 L 826.708 42.563 L 825.231 42.572 L 823.753 42.581 L 822.276 42.590 L 820.798 42.599 L 819.321 42.608 L 817.843 42.616 L 816.366 42.625 L 814.888 42.634 L 813.411 42.643 L 811.933 42.651 L 810.456 42.660 L 808.978 42.669 L 807.501 42.677 L 806.023 42.685 L 804.546 42.694 L 803.068 42.702 L 801.591 42.710 L 800.113 42.719 L 798.636 42.727 L 797.158 42.735 L 795.681 42.743 L 794.203 42.751 L 792.726 42.759 L 791.248 42.767 L 789.771 42.774 L 788.293 42.782 L 786.816 42.790 L 785.338 42.797 L 783.861 42.805 L 782.383 42.812 L 780.906 42.820 L 779.428 42.827 L 777.951 42.834 L 776.473 42.841 L 774.996 42.848 L 773.518 42.855 L 772.041 42.862 L 770.563 42.869 L 769.086 42.876 L 767.608 42.882 L 766.130 42.889 L 764.653 42.896 L 763.175 42.902 L 761.698 42.908 L 760.220 42.915 L 758.743 42.921 L 757.265 42.927 L 755.788 42.933 L 754.310 42.939 L 752.833 42.944 L 751.355 42.950 L 749.878 42.956 L 748.400 42.961 L 746.923 42.967 L 745.445 42.972 L 743.968 42.977 L 742.490 42.982 L 741.013 42.987 L 739.535 42.992 L 738.058 42.997 L 736.580 43.002 L 735.103 43.006 L 733.625 43.011 L 732.148 43.015 L 730.670 43.019 L 729.192 43.023 L 727.715 43.027 L 726.237 43.031 L 724.760 43.035 L 723.282 43.039 L 721.805 43.042 L 720.327 43.046 L 718.850 43.049 L 717.372 43.052 L 715.895 43.055 L 714.417 43.058 L 712.940 43.061 L 711.462 43.063 L 709.985 43.066 L 708.507 43.068 L 707.030 43.070 L 705.552 43.072 L 704.074 43.074 L 702.597 43.076 L 701.119 43.078 L 699.642 43.079 L 698.164 43.080 L 696.687 43.081 L 695.209 43.082 L 693.732 43.083 L 692.254 43.084 L 690.777 43.084 L 689.299 43.084 L 687.822 43.085 L 686.344 43.085 L 684.867 43.084 L 683.389 43.084 L 681.912 43.083 L 680.434 43.082 L 678.956 43.081 L 677.479 43.080 L 676.001 43.079 L 674.524 43.077 L 673.046 43.076 L 671.569 43.074 L 670.091 43.071 L 668.614 43.069 L 667.136 43.066 L 665.659 43.063 L 664.181 43.060 L 662.704 43.057 L 661.226 43.053 L 659.749 43.050 L 658.271 43.046 L 656.794 43.041 L 655.316 43.037 L 653.838 43.032 L 652.361 43.027 L 650.883 43.022 L 649.406 43.016 L 647.928 43.010 L 646.451 43.004 L 644.973 42.998 L 643.496 42.991 L 642.018 42.984 L 640.541 42.976 L 639.063 42.969 L 637.586 42.961 L 636.108 42.952 L 634.631 42.944 L 633.153 42.935 L 631.676 42.925 L 630.198 42.915 L 628.721 42.905 L 627.243 42.895 L 625.766 42.884 L 624.288 42.873 L 622.811 42.861 L 621.333 42.849 L 619.856 42.836 L 618.378 42.823 L 616.901 42.810 L 615.423 42.796 L 613.946 42.782 L 612.469 42.767 L 610.991 42.751 L 609.514 42.736 L 608.036 42.719 L 606.559 42.702 L 605.081 42.685 L 603.604 42.667 L 602.127 42.648 L 600.649 42.628 L 599.172 42.608 L 597.694 42.588 L 596.217 42.566 L 594.740 42.544 L 593.262 42.521 L 591.785 42.498 L 590.308 42.473 L 588.830 42.448 L 587.353 42.422 L 585.876 42.397 L 584.398 42.379 L 582.921 42.371 L 581.443 42.373 L 579.966 42.386 L 578.488 42.410 L 577.011 42.445 L 575.534 42.493 L 574.058 42.554 L 572.583 42.628 L 571.108 42.716 L 569.634 42.820 L 568.161 42.939 L 566.690 43.075 L 565.220 43.229 L 563.753 43.401 L 562.288 43.593 L 560.826 43.807 L 559.367 44.042 L 557.913 44.301 L 556.463 44.584 L 555.018 44.894 L 553.580 45.232 L 552.148 45.599 L 550.725 45.997 L 549.312 46.427 L 547.909 46.892 L 546.519 47.392 L 545.143 47.929 L 543.783 48.507 L 542.441 49.126 L 541.120 49.786 L 539.821 50.490 L 538.545 51.235 L 537.295 52.022 L 536.071 52.850 L 534.875 53.718 L 533.707 54.623 L 532.569 55.564 L 531.458 56.539 L 530.374 57.543 L 529.316 58.574 L 528.281 59.629 L 527.266 60.702 L 526.264 61.788 L 525.269 62.880 L 524.273 63.972 L 523.269 65.055 L 522.249 66.124 L 521.205 67.170 L 520.130 68.184 L 519.018 69.156 L 517.864 70.079 L 516.668 70.947 L 515.431 71.754 L 514.155 72.498 L 512.844 73.180 L 511.504 73.801 L 510.138 74.364 L 508.750 74.870 L 507.344 75.325 L 505.924 75.731 L 504.491 76.092 L 503.049 76.412 L 501.598 76.695 L 500.142 76.942 L 498.680 77.158 L 497.214 77.344 L 495.745 77.503 L 494.274 77.637 L 492.801 77.748 L 491.326 77.837 L 489.850 77.906 L 488.373 77.957 L 486.896 77.990 L 485.419 78.007 L 483.941 78.009 L 482.464 77.998 L 480.986 77.978 L 479.509 77.948 L 478.032 77.908 L 476.555 77.857 L 475.079 77.795 L 473.604 77.721 L 472.129 77.634 L 470.655 77.533 L 469.182 77.416 L 467.710 77.284 L 466.240 77.134 L 464.772 76.966 L 463.307 76.777 L 461.844 76.566 L 460.386 76.331 L 458.932 76.070 L 457.483 75.780 L 456.041 75.459 L 454.606 75.104 L 453.182 74.711 L 451.770 74.277 L 450.372 73.799 L 448.992 73.272 L 447.632 72.695 L 446.296 72.063 L 444.989 71.374 L 443.714 70.628 L 442.473 69.826 L 441.265 68.976 L 440.087 68.084 L 438.934 67.160 L 437.801 66.212 L 436.679 65.251 L 435.562 64.283 L 434.445 63.316 L 433.321 62.357 L 432.186 61.411 L 431.038 60.481 L 429.875 59.570 L 428.694 58.682 L 427.495 57.819 L 426.274 56.986 L 425.033 56.184 L 423.773 55.413 L 422.494 54.673 L 421.198 53.964 L 419.886 53.285 L 418.559 52.635 L 417.219 52.014 L 415.866 51.420 L 414.501 50.853 L 413.127 50.311 L 411.743 49.794 L 410.350 49.300 L 408.950 48.828 L 407.543 48.378 L 406.129 47.948 L 404.710 47.537 L 403.286 47.145 L 401.856 46.770 L 400.423 46.413 L 398.985 46.071 L 397.544 45.745 L 396.100 45.433 L 394.653 45.135 L 393.203 44.851 L 391.750 44.579 L 390.296 44.320 L 388.840 44.071 L 387.381 43.833 L 385.921 43.606 L 384.460 43.388 L 382.997 43.179 L 381.533 42.980 L 380.068 42.789 L 378.602 42.607 L 377.135 42.432 L 375.667 42.266 L 374.198 42.106 L 372.728 41.954 L 371.258 41.809 L 369.787 41.670 L 368.315 41.537 L 366.843 41.411 L 365.370 41.291 L 363.897 41.176 L 362.424 41.067 L 360.950 40.964 L 359.476 40.865 L 358.001 40.772 L 356.526 40.683 L 355.051 40.599 L 353.576 40.520 L 352.100 40.445 L 350.624 40.375 L 349.148 40.308 L 347.672 40.246 L 346.195 40.188 L 344.719 40.133 L 343.242 40.083 L 341.765 40.036 L 340.289 39.992 L 338.812 39.952 L 337.335 39.915 L 335.857 39.882 L 334.380 39.851 L 332.903 39.824 L 331.426 39.800 L 329.948 39.779 L 328.471 39.761 L 326.993 39.745 L 325.516 39.732 L 324.038 39.722 L 322.561 39.715 L 321.083 39.710 L 319.606 39.708 L 318.128 39.708 L 316.651 39.710 L 315.173 39.715 L 313.696 39.722 L 312.218 39.732 L 310.741 39.743 L 309.263 39.757 L 307.786 39.773 L 306.308 39.791 L 304.831 39.811 L 303.354 39.833 L 301.876 39.856 L 300.399 39.879 L 298.922 39.902 L 297.444 39.925 L 295.967 39.949 L 294.490 39.974 L 293.012 40.000 L 291.535 40.026 L 290.058 40.054 L 288.580 40.084 L 287.103 40.115 L 285.626 40.148 L 284.149 40.183 L 282.672 40.220 L 281.195 40.260 L 279.718 40.302 L 278.241 40.347 L 276.764 40.394 L 275.288 40.445 L 273.811 40.499 L 272.335 40.556 L 270.858 40.617 L 269.382 40.682 L 267.906 40.750 L 266.431 40.823 L 264.955 40.899 L 263.480 40.981 L 262.005 41.066 L 260.530 41.157 L 259.056 41.253 L 257.581 41.353 L 256.108 41.459 L 254.634 41.571 L 253.162 41.688 L 251.689 41.811 L 250.217 41.939 L 248.746 42.074 L 247.275 42.216 L 245.805 42.363 L 244.336 42.518 L 242.867 42.677 L 241.398 42.838 L 239.929 42.999 L 238.460 43.161 L 236.992 43.323 L 235.524 43.488 L 234.056 43.655 L 232.588 43.825 L 231.120 43.997 L 229.653 44.174 L 228.187 44.355 L 226.721 44.540 L 225.256 44.731 L 223.792 44.927 L 222.328 45.130 L 220.865 45.339 L 219.404 45.555 L 217.943 45.779 L 216.484 46.011 L 215.026 46.251 L 213.570 46.500 L 212.115 46.759 L 210.662 47.027 L 209.211 47.306 L 207.762 47.596 L 206.316 47.897 L 204.872 48.210 L 203.431 48.535 L 201.992 48.873 L 200.557 49.224 L 199.125 49.589 L 197.697 49.967 L 196.273 50.361 L 194.853 50.769 L 193.437 51.192 L 192.026 51.631 L 190.621 52.087 L 189.220 52.558 L 187.823 53.039 L 186.429 53.527 L 185.037 54.023 L 183.648 54.527 L 182.262 55.037 L 180.878 55.555 L 179.497 56.080 L 178.118 56.612 L 176.742 57.150 L 175.369 57.696 L 173.998 58.248 L 172.630 58.806 L 171.265 59.371 L 169.903 59.942 L 168.543 60.520 L 167.186 61.104 L 165.831 61.694 L 164.479 62.290 L 163.130 62.893 L 161.783 63.501 L 160.439 64.115 L 159.098 64.734 L 157.759 65.360 L 156.423 65.991 L 155.090 66.628 L 153.759 67.270 L 152.431 67.917 L 151.106 68.570 L 149.783 69.229 L 148.463 69.892 L 147.145 70.561 L 145.830 71.234 L 144.518 71.913 L 143.208 72.597 L 141.901 73.286 L 140.596 73.979 L 139.294 74.678 L 137.995 75.381 L 136.698 76.089 L 135.404 76.802 L 134.112 77.519 L 132.823 78.240 L 131.536 78.967 L 130.252 79.697 L 128.970 80.433 L 127.691 81.172 L 126.414 81.916 L 125.140 82.664 L 123.868 83.416 L 122.599 84.173 L 121.332 84.933 L 120.068 85.698 L 118.807 86.468 L 117.550 87.244 L 116.295 88.024 L 115.044 88.811 L 113.797 89.603 L 112.554 90.402 L 111.315 91.207 L 110.081 92.019 L 108.851 92.838 L 107.627 93.665 L 106.407 94.499 L 105.193 95.341 L 103.985 96.192 L 102.783 97.051 L 101.587 97.918 L 100.397 98.795 L 99.215 99.680 L 98.039 100.576 L 96.871 101.481 L 95.711 102.396 L 94.559 103.321 L 93.416 104.257 L 92.281 105.203 L 91.156 106.161 L 90.040 107.129 L 88.935 108.109 L 87.839 109.101 L 86.755 110.105 L 85.682 111.120 L 84.621 112.148 L 83.571 113.189 L 82.535 114.242 L 81.512 115.307 L 80.502 116.386 L 79.506 117.478 L 78.524 118.581 L 77.550 119.693 L 76.584 120.810 L 75.625 121.934 L 74.673 123.064 L 73.728 124.200 L 72.790 125.342 L 71.859 126.489 L 70.936 127.642 L 70.019 128.801 L 69.109 129.965 L 68.206 131.135 L 67.310 132.310 L 66.421 133.490 L 65.539 134.675 L 64.663 135.865 L 63.795 137.060 L 62.933 138.261 L 62.078 139.465 L 61.229 140.675 L 60.387 141.890 L 59.552 143.108 L 58.724 144.332 L 57.903 145.560 L 57.088 146.792 L 56.279 148.029 L 55.478 149.270 L 54.683 150.516 L 53.894 151.765 L 53.112 153.019 L 52.337 154.277 L 51.568 155.539 L 50.806 156.805 L 50.051 158.074 L 49.302 159.348 L 48.560 160.626 L 47.824 161.907 L 47.096 163.192 L 46.373 164.481 L 45.658 165.774 L 44.949 167.070 L 44.246 168.370 L 43.550 169.674 L 42.862 170.981 L 42.179 172.291 L 41.504 173.605 L 40.835 174.923 L 40.173 176.244 L 39.518 177.568 L 38.870 178.896 L 38.229 180.227 L 37.597 181.563 L 36.976 182.903 L 36.365 184.249 L 35.766 185.599 L 35.176 186.954 L 34.598 188.314 L 34.029 189.678 L 33.471 191.046 L 32.923 192.418 L 32.384 193.794 L 31.856 195.173 L 31.337 196.557 L 30.827 197.943 L 30.327 199.334 L 29.836 200.727 L 29.354 202.124 L 28.881 203.524 L 28.417 204.927 L 27.962 206.332 L 27.515 207.741 L 27.077 209.152 L 26.648 210.565 L 26.226 211.982 L 25.813 213.400 L 25.408 214.821 L 25.010 216.244 L 24.621 217.669 L 24.239 219.097 L 23.865 220.526 L 23.498 221.957 L 23.138 223.390 L 22.786 224.825 L 22.441 226.262 L 22.103 227.701 L 21.772 229.140 L 21.448 230.582 L 21.131 232.025 L 20.820 233.470 L 20.516 234.915 L 20.219 236.363 L 19.927 237.811 L 19.642 239.261 L 19.363 240.712 L 19.091 242.164 L 18.824 243.617 L 18.564 245.072 L 18.312 246.528 L 18.067 247.985 L 17.831 249.443 L 17.602 250.903 L 17.381 252.364 L 17.168 253.826 L 16.963 255.289 L 16.767 256.754 L 16.578 258.219 L 16.399 259.686 L 16.227 261.153 L 16.064 262.622 L 15.910 264.091 L 15.765 265.562 L 15.629 267.033 L 15.502 268.505 L 15.384 269.978 L 15.275 271.451 L 15.175 272.925 L 15.085 274.400 L 15.005 275.876 L 14.935 277.351 L 14.874 278.828 L 14.823 280.304 L 14.783 281.781 L 14.753 283.259 L 14.733 284.736 L 14.725 286.213 L 14.726 287.691 L 14.739 289.168 L 14.763 290.646 L 14.798 292.123 L 14.844 293.600 L 14.903 295.076 L 14.972 296.552 L 15.054 298.027 L 15.148 299.502 L 15.254 300.975 L 15.373 302.448 L 15.504 303.920 L 15.648 305.390 L 15.805 306.859 L 15.975 308.327 L 16.157 309.793 L 16.352 311.258 L 16.558 312.721 L 16.777 314.182 L 17.007 315.642 L 17.249 317.099 L 17.501 318.555 L 17.765 320.009 L 18.039 321.461 L 18.323 322.911 L 18.618 324.359 L 18.922 325.804 L 19.237 327.248 L 19.560 328.690 L 19.893 330.129 L 20.235 331.567 L 20.586 333.002 L 20.945 334.435 L 21.313 335.866 L 21.689 337.295 L 22.073 338.722 L 22.465 340.147 L 22.864 341.569 L 23.271 342.990 L 23.685 344.408 L 24.106 345.824 L 24.534 347.238 L 24.969 348.650 L 25.410 350.061 L 25.857 351.469 L 26.311 352.875 L 26.770 354.279 L 27.236 355.681 L 27.707 357.082 L 28.183 358.480 L 28.665 359.877 L 29.152 361.272 L 29.644 362.666 L 30.140 364.057 L 30.642 365.447 L 31.148 366.835 L 31.659 368.221 L 32.176 369.605 L 32.700 370.987 L 33.231 372.366 L 33.768 373.742 L 34.312 375.116 L 34.863 376.487 L 35.422 377.855 L 35.987 379.220 L 36.559 380.582 L 37.139 381.941 L 37.727 383.297 L 38.322 384.649 L 38.925 385.998 L 39.535 387.344 L 40.154 388.685 L 40.781 390.023 L 41.416 391.357 L 42.059 392.687 L 42.711 394.013 L 43.372 395.335 L 44.041 396.652 L 44.719 397.965 L 45.406 399.273 L 46.102 400.576 L 46.808 401.874 L 47.523 403.168 L 48.247 404.455 L 48.981 405.737 L 49.725 407.014 L 50.479 408.285 L 51.243 409.549 L 52.017 410.808 L 52.802 412.060 L 53.597 413.305 L 54.402 414.544 L 55.219 415.776 L 56.046 417.000 L 56.884 418.217 L 57.732 419.427 L 58.586 420.632 L 59.445 421.834 L 60.310 423.033 L 61.180 424.227 L 62.056 425.416 L 62.938 426.602 L 63.826 427.783 L 64.721 428.959 L 65.622 430.129 L 66.530 431.295 L 67.444 432.455 L 68.366 433.610 L 69.295 434.759 L 70.232 435.902 L 71.176 437.038 L 72.129 438.168 L 73.089 439.291 L 74.057 440.407 L 75.034 441.516 L 76.019 442.617 L 77.013 443.710 L 78.016 444.795 L 79.028 445.871 L 80.049 446.939 L 81.079 447.998 L 82.119 449.048 L 83.169 450.087 L 84.229 451.117 L 85.298 452.136 L 86.378 453.145 L 87.468 454.142 L 88.569 455.128 L 89.680 456.102 L 90.802 457.064 L 91.934 458.013 L 93.077 458.949 L 94.232 459.871 L 95.397 460.779 L 96.574 461.673 L 97.761 462.552 L 98.960 463.415 L 100.167 464.268 L 101.379 465.113 L 102.594 465.954 L 103.813 466.789 L 105.035 467.618 L 106.262 468.443 L 107.491 469.262 L 108.724 470.076 L 109.961 470.885 L 111.200 471.689 L 112.443 472.488 L 113.689 473.282 L 114.938 474.071 L 116.191 474.855 L 117.446 475.635 L 118.704 476.409 L 119.965 477.179 L 121.229 477.944 L 122.496 478.705 L 123.765 479.461 L 125.037 480.213 L 126.312 480.960 L 127.589 481.702 L 128.869 482.440 L 130.152 483.174 L 131.437 483.904 L 132.724 484.629 L 134.013 485.351 L 135.305 486.068 L 136.599 486.781 L 137.896 487.490 L 139.194 488.195 L 140.495 488.896 L 141.797 489.593 L 143.102 490.286 L 144.409 490.976 L 145.718 491.661 L 147.029 492.343 L 148.341 493.022 L 149.656 493.696 L 150.972 494.367 L 152.290 495.035 L 153.610 495.699 L 154.932 496.360 L 156.255 497.017 L 157.580 497.671 L 158.906 498.322 L 160.234 498.969 L 161.564 499.613 L 162.895 500.254 L 164.228 500.892 L 165.562 501.527 L 166.898 502.159 L 168.235 502.788 L 169.573 503.414 L 170.913 504.037 L 172.254 504.658 L 173.596 505.275 L 174.940 505.890 L 176.285 506.502 L 177.631 507.111 L 178.978 507.718 L 180.326 508.322 L 181.676 508.924 L 183.026 509.523 L 184.378 510.120 L 185.730 510.714 L 187.084 511.306 L 188.439 511.896 L 189.794 512.484 L 191.150 513.072 L 192.505 513.661 L 193.860 514.250 L 195.215 514.839 L 196.570 515.429 L 197.924 516.019 L 199.278 516.610 L 200.632 517.202 L 201.986 517.794 L 203.340 518.386 L 204.693 518.979 L 206.047 519.572 L 207.400 520.165 L 208.753 520.759 L 210.105 521.353 L 211.458 521.948 L 212.810 522.543 L 214.163 523.139 L 215.515 523.734 L 216.867 524.330 L 218.218 524.927 L 219.570 525.523 L 220.922 526.120 L 222.273 526.718 L 223.624 527.315 L 224.976 527.913 L 226.327 528.511 L 227.678 529.110 L 229.028 529.708 L 230.379 530.307 L 231.730 530.906 L 233.080 531.505 L 234.431 532.105 L 235.781 532.704 L 237.132 533.304 L 238.482 533.904 L 239.832 534.504 L 241.182 535.104 L 242.532 535.705 L 243.882 536.305 L 245.232 536.906 L 246.582 537.507 L 247.932 538.107 L 249.282 538.708 L 250.631 539.309 L 251.981 539.910 L 253.331 540.511 L 254.681 541.112 L 256.030 541.714 L 257.380 542.315 L 258.730 542.916 L 260.080 543.517 L 261.429 544.118 L 262.779 544.719 L 264.129 545.320 L 265.478 545.921 L 266.828 546.522 L 268.178 547.123 L 269.528 547.724 L 270.878 548.325 L 272.228 548.926 L 273.578 549.526 L 274.928 550.127 L 276.278 550.727 L 277.628 551.327 L 278.978 551.928 L 280.328 552.527 L 281.679 553.127 L 283.029 553.727 L 284.379 554.326 L 285.730 554.925 L 287.081 555.524 L 288.431 556.123 L 289.782 556.722 L 291.133 557.320 L 292.484 557.918 L 293.835 558.516 L 295.187 559.114 L 296.538 559.711 L 297.890 560.308 L 299.241 560.905 L 300.593 561.501 L 301.945 562.097 L 303.297 562.693 L 304.649 563.289 L 306.002 563.884 L 307.354 564.479 L 308.707 565.073 L 310.060 565.667 L 311.413 566.261 L 312.766 566.854 L 314.120 567.447 L 315.473 568.039 L 316.827 568.631 L 318.181 569.223 L 319.535 569.814 L 320.889 570.404 L 322.244 570.995 L 323.599 571.584 L 324.953 572.174 L 326.309 572.762 L 327.664 573.351 L 329.020 573.938 L 330.376 574.525 L 331.732 575.112 L 333.088 575.698 L 334.444 576.284 L 335.801 576.869 L 337.158 577.453 L 338.516 578.037 L 339.873 578.620 L 341.231 579.203 L 342.589 579.785 L 343.947 580.366 L 345.306 580.947 L 346.665 581.527 L 348.024 582.106 L 349.384 582.685 L 350.743 583.263 L 352.103 583.840 L 353.464 584.417 L 354.824 584.993 L 356.185 585.568 L 357.547 586.143 L 358.908 586.717 L 360.270 587.290 L 361.632 587.862 L 362.995 588.433 L 364.358 589.004 L 365.721 589.574 L 367.084 590.143 L 368.448 590.711 L 369.813 591.279 L 371.177 591.845 L 372.542 592.411 L 373.907 592.976 L 375.273 593.540 L 376.639 594.103 L 378.005 594.665 L 379.372 595.227 L 380.739 595.787 L 382.107 596.347 L 383.475 596.905 L 384.843 597.463 L 386.211 598.020 L 387.580 598.575 L 388.950 599.130 L 390.320 599.684 L 391.690 600.237 L 393.061 600.789 L 394.432 601.339 L 395.803 601.889 L 397.175 602.438 L 398.547 602.985 L 399.920 603.532 L 401.293 604.077 L 402.667 604.622 L 404.041 605.165 L 405.415 605.707 L 406.790 606.249 L 408.165 606.789 L 409.541 607.327 L 410.917 607.865 L 412.294 608.402 L 413.671 608.937 L 415.049 609.471 L 416.427 610.004 L 417.805 610.536 L 419.184 611.066 L 420.564 611.596 L 421.944 612.124 L 423.324 612.651 L 424.705 613.176 L 426.086 613.701 L 427.468 614.224 L 428.851 614.745 L 430.233 615.266 L 431.617 615.785 L 433.001 616.302 L 434.385 616.819 L 435.770 617.334 L 437.155 617.848 L 438.541 618.360 L 439.927 618.871 L 441.314 619.380 L 442.702 619.889 L 444.090 620.395 L 445.478 620.901 L 446.867 621.404 L 448.257 621.907 L 449.647 622.408 L 451.037 622.907 L 452.428 623.405 L 453.820 623.901 L 455.212 624.396 L 456.605 624.890 L 457.998 625.382 L 459.392 625.872 L 460.786 626.361 L 462.181 626.848 L 463.577 627.333 L 464.973 627.817 L 466.369 628.300 L 467.766 628.780 L 469.164 629.259 L 470.562 629.737 L 471.961 630.213 L 473.361 630.687 L 474.761 631.159 L 476.161 631.630 L 477.562 632.099 L 478.964 632.566 L 480.366 633.032 L 481.769 633.496 L 483.172 633.958 L 484.576 634.418 L 485.981 634.876 L 487.386 635.333 L 488.792 635.788 L 490.198 636.241 L 491.605 636.692 L 493.013 637.142 L 494.421 637.589 L 495.830 638.035 L 497.239 638.479 L 498.649 638.921 L 500.059 639.361 L 501.470 639.799 L 502.882 640.235 L 504.294 640.669 L 505.707 641.101 L 507.121 641.532 L 508.535 641.960 L 509.950 642.386 L 511.365 642.811 L 512.781 643.233 L 514.197 643.653 L 515.614 644.071 L 517.032 644.487 L 518.450 644.901 L 519.869 645.313 L 521.289 645.723 L 522.709 646.131 L 524.130 646.537 L 525.551 646.940 L 526.973 647.342 L 528.396 647.741 L 529.819 648.138 L 531.242 648.534 L 532.666 648.928 L 534.091 649.320 L 535.516 649.709 L 536.942 650.097 L 538.368 650.482 L 539.796 650.865 L 541.223 651.245 L 542.652 651.623 L 544.081 651.997 L 545.511 652.368 L 546.942 652.736 L 548.374 653.100 L 549.807 653.460 L 551.241 653.817 L 552.676 654.169 L 554.112 654.518 L 555.549 654.862 L 556.987 655.201 L 558.426 655.535 L 559.866 655.864 L 561.308 656.189 L 562.751 656.507 L 564.195 656.820 L 565.640 657.127 L 567.087 657.429 L 568.534 657.724 L 569.983 658.012 L 571.434 658.294 L 572.885 658.569 L 574.338 658.837 L 575.793 659.098 L 577.248 659.352 L 578.705 659.598 L 580.163 659.837 L 581.623 660.068 L 583.083 660.290 L 584.545 660.505 L 586.008 660.712 L 587.472 660.910 L 588.938 661.099 L 590.404 661.281 L 591.871 661.453 L 593.340 661.617 L 594.809 661.772 L 596.280 661.918 L 597.751 662.055 L 599.223 662.183 L 600.695 662.302 L 602.169 662.412 L 603.643 662.513 L 605.118 662.605 L 606.593 662.688 L 608.068 662.763 L 609.544 662.828 L 611.021 662.884 L 612.498 662.931 L 613.975 662.970 L 615.452 663.000 L 616.929 663.021 L 618.407 663.033 L 619.884 663.037 L 621.362 663.033 L 622.839 663.020 L 624.317 662.999 L 625.794 662.970 L 627.271 662.933 L 628.748 662.888 L 630.224 662.835 L 631.701 662.775 L 633.177 662.707 L 634.652 662.632 L 636.128 662.550 L 637.602 662.460 L 639.077 662.364 L 640.551 662.264 L 642.025 662.170 L 643.501 662.088 L 644.976 662.016 L 646.453 661.953 L 647.929 661.898 L 649.406 661.849 L 650.883 661.806 L 652.360 661.768 L 653.837 661.733 L 655.314 661.702 L 656.791 661.673 L 658.269 661.646 L 659.746 661.620 L 661.223 661.594 L 662.700 661.568 L 664.178 661.541 L 665.655 661.512 L 667.132 661.481 L 668.609 661.448 L 670.086 661.410 L 671.563 661.369 L 673.040 661.323 L 674.517 661.271 L 675.993 661.214 L 677.469 661.149 L 678.945 661.077 L 680.420 660.997 L 681.895 660.907 L 683.369 660.807 L 684.843 660.696 L 686.315 660.573 L 687.786 660.436 L 689.256 660.285 L 690.724 660.120 L 692.191 659.945 L 693.658 659.763 L 695.123 659.574 L 696.588 659.380 L 698.052 659.180 L 699.515 658.973 L 700.977 658.761 L 702.438 658.543 L 703.899 658.319 L 705.358 658.090 L 706.817 657.854 L 708.275 657.614 L 709.732 657.367 L 711.188 657.115 L 712.642 656.858 L 714.096 656.595 L 715.549 656.326 L 717.001 656.053 L 718.452 655.774 L 719.902 655.490 L 721.351 655.201 L 722.799 654.906 L 724.246 654.607 L 725.692 654.302 L 727.137 653.993 L 728.580 653.678 L 730.023 653.359 L 731.464 653.034 L 732.905 652.705 L 734.344 652.371 L 735.782 652.033 L 737.219 651.689 L 738.655 651.341 L 740.090 650.989 L 741.524 650.632 L 742.956 650.270 L 744.388 649.904 L 745.818 649.533 L 747.247 649.158 L 748.675 648.779 L 750.102 648.395 L 751.528 648.007 L 752.952 647.614 L 754.375 647.218 L 755.798 646.817 L 757.218 646.411 L 758.638 646.001 L 760.055 645.584 L 761.471 645.162 L 762.885 644.734 L 764.298 644.300 L 765.709 643.861 L 767.118 643.418 L 768.526 642.969 L 769.932 642.516 L 771.337 642.058 L 772.740 641.595 L 774.142 641.128 L 775.542 640.658 L 776.942 640.183 L 778.340 639.705 L 779.736 639.223 L 781.132 638.738 L 782.526 638.249 L 783.920 637.758 L 785.312 637.263 L 786.704 636.766 L 788.094 636.266 L 789.484 635.764 L 790.872 635.260 L 792.260 634.754 L 793.648 634.245 L 795.035 633.736 L 796.421 633.224 L 797.806 632.711 L 799.192 632.197 L 800.577 631.682 L 801.961 631.166 L 803.345 630.650 L 804.729 630.132 L 806.113 629.615 L 807.497 629.097 L 808.881 628.579 L 810.265 628.062 L 811.649 627.545 L 813.033 627.028 L 814.418 626.512 L 815.802 625.996 L 817.188 625.482 L 818.573 624.969 L 819.959 624.457 L 821.346 623.947 L 822.733 623.439 L 824.121 622.932 L 825.510 622.427 L 826.899 621.925 L 828.290 621.425 L 829.681 620.928 L 831.073 620.433 L 832.467 619.941 L 833.861 619.453 L 835.257 618.968 L 836.653 618.486 L 838.049 618.001 L 839.440 617.504 L 840.827 616.993 L 842.208 616.469 L 843.585 615.933 L 844.958 615.387 L 846.327 614.830 L 847.691 614.263 L 849.052 613.687 L 850.409 613.102 L 851.761 612.508 L 853.111 611.906 L 854.456 611.295 L 855.797 610.676 L 857.135 610.048 L 858.469 609.413 L 859.799 608.770 L 861.125 608.118 L 862.448 607.459 L 863.766 606.792 L 865.081 606.118 L 866.391 605.435 L 867.698 604.745 L 869.000 604.047 L 870.298 603.342 L 871.592 602.628 L 872.882 601.907 L 874.167 601.178 L 875.448 600.442 L 876.724 599.697 L 877.995 598.945 L 879.262 598.184 L 880.524 597.416 L 881.782 596.640 L 883.034 595.855 L 884.281 595.063 L 885.523 594.262 L 886.759 593.453 L 887.990 592.636 L 889.215 591.811 L 890.435 590.977 L 891.648 590.134 L 892.856 589.283 L 894.058 588.423 L 895.253 587.554 L 896.441 586.676 L 897.623 585.790 L 898.798 584.894 L 899.966 583.989 L 901.127 583.075 L 902.280 582.151 L 903.425 581.218 L 904.563 580.274 L 905.692 579.321 L 906.812 578.358 L 907.924 577.385 L 909.027 576.402 L 910.120 575.408 L 911.204 574.404 L 912.278 573.389 L 913.341 572.363 L 914.394 571.326 L 915.436 570.279 L 916.466 569.220 L 917.485 568.149 L 918.491 567.068 L 919.485 565.975 L 920.466 564.870 L 921.434 563.753 L 922.387 562.625 L 923.327 561.484 L 924.251 560.331 L 925.160 559.167 L 926.053 557.990 L 926.930 556.801 L 927.790 555.599 L 928.632 554.385 L 929.457 553.159 L 930.262 551.921 L 931.049 550.670 L 931.815 549.407 L 932.561 548.131 L 933.286 546.844 L 933.988 545.544 L 934.669 544.233 L 935.326 542.909 L 935.960 541.575 L 936.569 540.229 L 937.153 538.872 L 937.712 537.504 L 938.244 536.125 L 938.749 534.737 L 939.227 533.339 L 939.677 531.932 L 940.099 530.516 L 940.491 529.091 L 940.854 527.659 L 941.187 526.220 L 941.489 524.774 L 941.761 523.321 L 942.002 521.864 L 942.212 520.401 L 942.391 518.935 L 942.537 517.464 L 942.653 515.992 L 942.729 514.516 L 942.746 513.039 L 942.688 511.563 L 942.554 510.092 L 942.346 508.630 L 942.063 507.180 L 941.707 505.747 L 941.280 504.333 L 940.786 502.941 L 940.226 501.574 L 939.605 500.233 L 938.926 498.922 L 938.192 497.640 L 937.407 496.389 L 936.573 495.169 L 935.696 493.981 L 934.776 492.824 L 933.818 491.699 L 932.824 490.606 L 931.797 489.544 L 930.739 488.513 L 929.653 487.512 L 928.540 486.541 L 927.403 485.597 L 926.246 484.679 L 925.069 483.786 L 923.874 482.917 L 922.662 482.071 L 921.435 481.249 L 920.193 480.448 L 918.938 479.668 L 917.671 478.908 L 916.393 478.168 L 915.103 477.446 L 913.804 476.742 L 912.496 476.056 L 911.178 475.387 L 909.853 474.733 L 908.521 474.095 L 907.181 473.472 L 905.835 472.863 L 904.482 472.268 L 903.124 471.687 L 901.761 471.117 L 900.392 470.560 L 899.019 470.015 L 897.641 469.482 L 896.259 468.959 L 894.873 468.447 L 893.483 467.945 L 892.090 467.454 L 890.693 466.972 L 889.293 466.500 L 887.890 466.038 L 886.483 465.585 L 885.074 465.141 L 883.662 464.707 L 882.247 464.281 L 880.830 463.863 L 879.410 463.454 L 877.988 463.053 L 876.563 462.660 L 875.137 462.276 L 873.708 461.899 L 872.277 461.530 L 870.845 461.169 L 869.410 460.816 L 867.974 460.470 L 866.535 460.131 L 865.095 459.800 L 863.654 459.477 L 862.210 459.161 L 860.766 458.852 L 859.319 458.551 L 857.871 458.257 L 856.422 457.971 L 854.971 457.692 L 853.518 457.420 L 852.064 457.157 L 850.609 456.901 L 849.152 456.654 L 847.694 456.415 L 846.235 456.184 L 844.774 455.963 L 843.312 455.751 L 841.848 455.550 L 840.383 455.360 L 838.916 455.182 L 837.448 455.019 L 835.978 454.868 L 834.509 454.704 L 833.046 454.501 L 831.589 454.255 L 830.141 453.966 L 828.701 453.634 L 827.272 453.260 L 825.854 452.845 L 824.448 452.390 L 823.055 451.897 L 821.676 451.368 L 820.310 450.806 L 818.957 450.213 L 817.616 449.591 L 816.288 448.945 L 814.970 448.276 L 813.662 447.588 L 812.363 446.884 L 811.072 446.167 L 809.786 445.440 L 808.504 444.705 L 807.225 443.965 L 805.947 443.223 L 804.670 442.480 L 803.391 441.741 L 802.108 441.007 L 800.821 440.282 L 799.528 439.566 L 798.228 438.864 L 796.921 438.176 L 795.604 437.506 L 794.278 436.854 L 792.943 436.222 L 791.596 435.613 L 790.240 435.028 L 788.872 434.469 L 787.494 433.937 L 786.105 433.433 L 784.706 432.958 L 783.297 432.515 L 781.878 432.102 L 780.450 431.722 L 779.014 431.375 L 777.570 431.061 L 776.120 430.781 L 774.663 430.535 L 773.201 430.322 L 771.734 430.143 L 770.264 429.997 L 768.791 429.885 L 767.316 429.805 L 765.839 429.749 L 764.363 429.700 L 762.886 429.656 L 761.409 429.614 L 759.932 429.576 L 758.455 429.542 L 756.977 429.510 L 755.500 429.481 L 754.023 429.455 L 752.545 429.432 L 751.068 429.412 L 749.591 429.395 L 748.113 429.380 L 746.636 429.367 L 745.158 429.357 L 743.681 429.349 L 742.203 429.344 L 740.726 429.340 L 739.248 429.339 L 737.771 429.339 L 736.293 429.342 L 734.816 429.346 L 733.338 429.351 L 731.861 429.359 L 730.383 429.368 L 728.906 429.378 L 727.428 429.390 L 725.951 429.403 L 724.473 429.417 L 722.996 429.432 L 721.518 429.448 L 720.041 429.465 L 718.563 429.483 L 717.086 429.501 L 715.609 429.520 L 714.131 429.540 L 712.654 429.560 L 711.176 429.580 L 709.699 429.600 L 708.222 429.621 L 706.744 429.641 L 705.267 429.662 L 703.789 429.682 L 702.312 429.702 L 700.835 429.721 L 699.357 429.740 L 697.880 429.758 L 696.402 429.776 L 694.925 429.792 L 693.447 429.808 L 691.970 429.822 L 690.492 429.835 L 689.015 429.847 L 687.537 429.857 L 686.060 429.865 L 684.582 429.872 L 683.105 429.876 L 681.627 429.878 L 680.150 429.878 L 678.672 429.875 L 677.195 429.870 L 675.717 429.862 L 674.240 429.850 L 672.762 429.836 L 671.285 429.817 L 669.808 429.796 L 668.330 429.770 L 666.853 429.740 L 665.376 429.705 L 663.899 429.666 L 662.422 429.622 L 660.945 429.572 L 659.469 429.517 L 657.993 429.456 L 656.517 429.389 L 655.041 429.315 L 653.566 429.234 L 652.091 429.146 L 650.616 429.050 L 649.143 428.945 L 647.669 428.832 L 646.197 428.709 L 644.725 428.576 L 643.255 428.432 L 641.786 428.276 L 640.318 428.108 L 638.851 427.927 L 637.387 427.732 L 635.924 427.523 L 634.464 427.299 L 633.006 427.059 L 631.551 426.802 L 630.099 426.527 L 628.651 426.234 L 627.207 425.920 L 625.768 425.585 L 624.335 425.226 L 622.908 424.843 L 621.489 424.433 L 620.078 423.994 L 618.677 423.524 L 617.288 423.020 L 615.914 422.479 L 614.555 421.898 L 613.217 421.272 L 611.903 420.597 L 610.618 419.868 L 609.368 419.081 L 608.156 418.237 L 606.985 417.337 L 605.865 416.374 L 604.809 415.342 L 603.828 414.239 L 602.935 413.062 L 602.144 411.816 L 601.463 410.506 L 600.897 409.143 L 600.445 407.737 L 600.103 406.301 L 599.862 404.844 L 599.713 403.375 L 599.646 401.899 L 599.650 400.422 L 599.718 398.946 L 599.841 397.474 L 600.023 396.008 L 600.334 394.568 L 600.857 393.190 L 601.578 391.904 L 602.460 390.722 L 603.466 389.641 L 604.562 388.652 L 605.725 387.742 L 606.938 386.900 L 608.189 386.114 L 609.471 385.380 L 610.780 384.694 L 612.110 384.051 L 613.458 383.446 L 614.820 382.875 L 616.195 382.335 L 617.581 381.822 L 618.976 381.335 L 620.379 380.871 L 621.788 380.429 L 623.204 380.006 L 624.625 379.602 L 626.051 379.216 L 627.482 378.846 L 628.916 378.491 L 630.354 378.151 L 631.795 377.825 L 633.239 377.512 L 634.686 377.212 L 636.135 376.923 L 637.586 376.645 L 639.039 376.377 L 640.494 376.119 L 641.950 375.870 L 643.408 375.631 L 644.868 375.400 L 646.328 375.177 L 647.790 374.961 L 649.253 374.754 L 650.717 374.553 L 652.181 374.359 L 653.647 374.171 L 655.113 373.990 L 656.580 373.815 L 658.048 373.646 L 659.517 373.482 L 660.986 373.324 L 662.455 373.171 L 663.925 373.023 L 665.396 372.880 L 666.867 372.741 L 668.338 372.607 L 669.810 372.478 L 671.282 372.352 L 672.755 372.231 L 674.228 372.114 L 675.701 372.001 L 677.175 371.892 L 678.648 371.786 L 680.122 371.684 L 681.597 371.585 L 683.071 371.489 L 684.546 371.397 L 686.020 371.308 L 687.496 371.223 L 688.971 371.140 L 690.446 371.060 L 691.922 370.983 L 693.397 370.909 L 694.873 370.837 L 696.349 370.769 L 697.825 370.702 L 699.301 370.639 L 700.777 370.578 L 702.254 370.519 L 703.730 370.463 L 705.207 370.409 L 706.683 370.357 L 708.160 370.307 L 709.637 370.260 L 711.114 370.215 L 712.591 370.171 L 714.068 370.130 L 715.545 370.091 L 717.022 370.054 L 718.499 370.019 L 719.976 369.985 L 721.453 369.953 L 722.930 369.923 L 724.408 369.895 L 725.885 369.868 L 727.362 369.843 L 728.840 369.820 L 730.317 369.798 L 731.794 369.777 L 733.272 369.758 L 734.749 369.741 L 736.227 369.725 L 737.704 369.710 L 739.182 369.696 L 740.659 369.684 L 742.137 369.673 L 743.614 369.664 L 745.092 369.655 L 746.569 369.648 L 748.047 369.642 L 749.524 369.637 L 751.002 369.633 L 752.479 369.630 L 753.957 369.629 L 755.434 369.628 L 756.912 369.628 L 758.389 369.630 L 759.867 369.632 L 761.344 369.635 L 762.822 369.640 L 764.299 369.645 L 765.777 369.651 L 767.254 369.658 L 768.732 369.665 L 770.209 369.674 L 771.687 369.683 L 773.164 369.693 L 774.642 369.704 L 776.119 369.716 L 777.597 369.728 L 779.074 369.741 L 780.552 369.755 L 782.029 369.769 L 783.507 369.784 L 784.984 369.800 L 786.462 369.816 L 787.939 369.833 L 789.417 369.850 L 790.894 369.868 L 792.371 369.887 L 793.849 369.906 L 795.326 369.926 L 796.804 369.946 L 798.281 369.966 L 799.758 369.987 L 801.236 370.009 L 802.713 370.031 L 804.190 370.053 L 805.668 370.076 L 807.145 370.099 L 808.622 370.122 L 810.100 370.146 L 811.577 370.170 L 813.054 370.195 L 814.532 370.220 L 816.009 370.245 L 817.486 370.270 L 818.964 370.296 L 820.441 370.322 L 821.918 370.348 L 823.396 370.374 L 824.873 370.401 L 826.350 370.428 L 827.828 370.455 L 829.305 370.482 L 830.782 370.509 L 832.259 370.536 L 833.737 370.564 L 835.214 370.592 L 836.691 370.619 L 838.168 370.647 L 839.646 370.675 L 841.123 370.703 L 842.600 370.731 L 844.077 370.759 L 845.555 370.787 L 847.032 370.815 L 848.509 370.843 L 849.987 370.871 L 851.464 370.899 L 852.941 370.927 L 854.418 370.955 L 855.896 370.982 L 857.373 371.010 L 858.850 371.037 L 860.327 371.065 L 861.805 371.092 L 863.282 371.119 L 864.759 371.146 L 866.237 371.173 L 867.714 371.199 L 869.191 371.225 L 870.668 371.251 L 872.146 371.277 L 873.623 371.303 L 875.100 371.328 L 876.578 371.353 L 878.055 371.377 L 879.532 371.402 L 881.010 371.426 L 882.487 371.449 L 883.964 371.472 L 885.442 371.495 L 886.919 371.517 L 888.397 371.539 L 889.874 371.561 L 891.351 371.582 L 892.829 371.602 L 894.306 371.622 L 895.783 371.642 L 897.261 371.661 L 898.738 371.679 L 900.216 371.697 L 901.693 371.714 L 903.171 371.731 L 904.648 371.747 L 906.125 371.762 L 907.603 371.777 L 909.080 371.790 L 910.558 371.804 L 912.035 371.816 L 913.513 371.828 L 914.990 371.839 L 916.468 371.849 L 917.945 371.858 L 919.423 371.866 L 920.900 371.874 L 922.378 371.880 L 923.855 371.886 L 925.333 371.890 L 926.810 371.894 L 928.288 371.897 L 929.766 371.898 L 931.243 371.899 L 932.721 371.898 L 934.198 371.896 L 935.676 371.894 L 937.153 371.889 L 938.631 371.884 L 940.108 371.876 L 941.584 371.835 L 943.053 371.684 L 944.501 371.397 L 945.919 370.986 L 947.302 370.467 L 948.648 369.860 L 949.962 369.184 L 951.247 368.455 L 952.509 367.687 L 953.753 366.891 L 954.985 366.075 L 956.209 365.247 L 957.428 364.413 L 958.644 363.572 L 959.851 362.721 L 961.052 361.860 L 962.245 360.989 L 963.432 360.109 L 964.613 359.221 L 965.789 358.327 L 966.961 357.426 L 968.127 356.520 L 969.290 355.608 L 970.449 354.691 L 971.604 353.770 L 972.757 352.846 L 973.906 351.917 L 975.053 350.985 L 976.197 350.050 L 977.338 349.112 L 978.478 348.172 L 979.616 347.229 L 980.751 346.284 L 981.886 345.337 L 983.018 344.388 L 984.149 343.437 L 985.279 342.485 L 986.407 341.531 L 987.535 340.576 L 988.661 339.620 L 989.786 338.663 L 990.911 337.704 L 992.035 336.745 L 993.158 335.785 L 994.280 334.824 L 995.402 333.862 L 996.523 332.900 L 997.644 331.937 L 998.764 330.974 L 999.884 330.010 L 1001.004 329.046 L 1002.124 328.082 L 1003.243 327.118 L 1004.362 326.153 L 1005.482 325.189 L 1006.601 324.224 L 1007.720 323.260 L 1008.840 322.295 L 1009.959 321.331 L 1011.079 320.367 L 1012.199 319.403 L 1013.319 318.440 L 1014.439 317.476 L 1015.560 316.514 L 1016.681 315.551 L 1017.803 314.589 L 1018.925 313.628 L 1020.047 312.667 L 1021.170 311.707 L 1022.294 310.748 L 1023.418 309.789 L 1024.543 308.831 L 1025.669 307.874 L 1026.795 306.918 L 1027.922 305.963 L 1029.050 305.008 L 1030.179 304.055 L 1031.309 303.103 L 1032.440 302.151 L 1033.571 301.201 L 1034.704 300.252 L 1035.837 299.305 L 1036.972 298.358 L 1038.108 297.413 L 1039.245 296.470 L 1040.383 295.528 L 1041.522 294.587 L 1042.663 293.648 L 1043.805 292.711 L 1044.949 291.775 L 1046.094 290.841 L 1047.240 289.909 L 1048.388 288.978 L 1049.537 288.050 L 1050.688 287.124 L 1051.841 286.199 L 1052.995 285.277 L 1054.151 284.357 L 1055.309 283.439 L 1056.469 282.523 L 1057.630 281.610 L 1058.793 280.699 L 1059.959 279.791 L 1061.126 278.885 L 1062.296 277.982 L 1063.467 277.082 L 1064.641 276.185 L 1065.817 275.290 L 1066.996 274.399 L 1068.177 273.511 L 1069.360 272.626 L 1070.546 271.745 L 1071.734 270.867 L 1072.926 269.993 L 1074.119 269.122 L 1075.316 268.256 L 1076.516 267.393 L 1077.719 266.535 L 1078.924 265.681 L 1080.133 264.832 L 1081.346 263.987 L 1082.562 263.148 L 1083.781 262.313 L 1085.004 261.484 L 1086.231 260.661 L 1087.461 259.843 L 1088.696 259.032 L 1089.935 258.227 L 1091.178 257.428 L 1092.426 256.637 L 1093.678 255.853 L 1094.936 255.077 L 1096.198 254.309 L 1097.465 253.549 L 1098.738 252.799 L 1100.017 252.058 L 1101.301 251.327 L 1102.591 250.608 L 1103.888 249.899 L 1105.191 249.204 L 1106.502 248.521 L 1107.819 247.852 L 1109.144 247.198 L 1110.476 246.559 L 1111.817 245.938 L 1113.165 245.334 L 1114.522 244.749 L 1115.888 244.185 L 1117.262 243.644 L 1118.647 243.127 L 1120.040 242.637 L 1121.444 242.177 L 1122.859 241.750 L 1124.284 241.360 L 1125.719 241.011 L 1127.166 240.709 L 1128.622 240.460 L 1130.086 240.268 L 1131.558 240.141 L 1133.034 240.091 L 1134.511 240.132 L 1135.980 240.278 L 1137.432 240.547 L 1138.851 240.953 L 1140.218 241.508 L 1141.514 242.213 L 1142.723 243.060 L 1143.855 244.009 L 1144.946 245.005 L 1145.997 246.044 L 1147.000 247.128 L 1147.950 248.259 L 1148.837 249.440 L 1149.653 250.671 L 1150.388 251.952 L 1151.036 253.280 L 1151.587 254.649 L 1152.039 256.055 L 1152.390 257.490 L 1152.641 258.945 L 1152.796 260.414 L 1152.861 261.890 L 1152.841 263.367 L 1152.735 264.840 L 1152.552 266.306 L 1152.297 267.761 L 1151.978 269.203 L 1151.600 270.632 L 1151.171 272.045 L 1150.693 273.443 L 1150.172 274.826 L 1149.612 276.193 L 1149.015 277.544 L 1148.385 278.881 L 1147.725 280.202 L 1147.037 281.510 L 1146.322 282.803 L 1145.584 284.083 L 1144.823 285.349 L 1144.041 286.603 L 1143.240 287.845 L 1142.421 289.074 L 1141.585 290.293 L 1140.734 291.500 L 1139.868 292.698 L 1138.989 293.885 L 1138.097 295.063 L 1137.193 296.232 L 1136.278 297.392 L 1135.353 298.544 L 1134.418 299.688 L 1133.473 300.824 L 1132.520 301.953 L 1131.558 303.074 L 1130.589 304.189 L 1129.612 305.298 L 1128.628 306.400 L 1127.637 307.496 L 1126.640 308.587 L 1125.637 309.672 L 1124.628 310.751 L 1123.614 311.825 L 1122.594 312.894 L 1121.569 313.959 L 1120.540 315.019 L 1119.506 316.074 L 1118.467 317.125 L 1117.424 318.172 L 1116.378 319.215 L 1115.327 320.254 L 1114.273 321.289 L 1113.215 322.320 L 1112.154 323.348 L 1111.089 324.373 L 1110.022 325.394 L 1108.951 326.413 L 1107.877 327.428 L 1106.801 328.440 L 1105.722 329.449 L 1104.640 330.456 L 1103.556 331.460 L 1102.470 332.461 L 1101.381 333.460 L 1100.290 334.457 L 1099.197 335.451 L 1098.102 336.443 L 1097.005 337.433 L 1095.906 338.420 L 1094.806 339.406 L 1093.703 340.390 L 1092.599 341.372 L 1091.494 342.352 L 1090.386 343.330 L 1089.278 344.307 L 1088.168 345.282 L 1087.056 346.256 L 1085.944 347.228 L 1084.830 348.199 L 1083.715 349.169 L 1082.600 350.137 L 1081.483 351.105 L 1080.365 352.071 L 1079.247 353.037 L 1078.128 354.002 L 1077.008 354.966 L 1075.888 355.929 L 1074.767 356.891 L 1073.645 357.853 L 1072.523 358.814 L 1071.400 359.775 L 1070.278 360.735 L 1069.154 361.695 L 1068.031 362.655 L 1066.907 363.614 L 1065.783 364.574 L 1064.659 365.533 L 1063.535 366.492 L 1062.411 367.451 L 1061.287 368.410 L 1060.163 369.369 L 1059.039 370.328 L 1057.916 371.287 L 1056.792 372.247 L 1055.669 373.207 L 1054.546 374.168 L 1053.424 375.128 L 1052.302 376.090 L 1051.181 377.052 L 1050.060 378.015 L 1048.940 378.978 L 1047.820 379.942 L 1046.701 380.907 L 1045.583 381.873 L 1044.466 382.840 L 1043.349 383.808 L 1042.234 384.777 L 1041.120 385.747 L 1040.006 386.718 L 1038.894 387.691 L 1037.783 388.665 L 1036.673 389.641 L 1035.565 390.618 L 1034.458 391.597 L 1033.353 392.577 L 1032.249 393.559 L 1031.147 394.543 L 1030.047 395.529 L 1028.948 396.517 L 1027.851 397.508 L 1026.757 398.500 L 1025.664 399.495 L 1024.574 400.492 L 1023.486 401.491 L 1022.400 402.493 L 1021.317 403.498 L 1020.236 404.506 L 1019.158 405.517 L 1018.083 406.530 L 1017.011 407.547 L 1015.942 408.567 L 1014.876 409.590 L 1013.813 410.616 L 1012.753 411.645 L 1011.696 412.678 L 1010.642 413.714 L 1009.592 414.753 L 1008.546 415.796 L 1007.504 416.844 L 1006.466 417.896 L 1005.433 418.952 L 1004.405 420.013 L 1003.382 421.079 L 1002.364 422.150 L 1001.353 423.227 L 1000.347 424.310 L 999.349 425.399 L 998.357 426.494 L 997.373 427.596 L 996.397 428.705 L 995.429 429.822 L 994.470 430.946 L 993.521 432.078 L 992.581 433.219 L 991.653 434.368 L 990.736 435.527 L 989.832 436.695 L 988.941 437.874 L 988.063 439.062 L 987.201 440.262 L 986.354 441.473 L 985.525 442.696 L 984.714 443.931 L 983.922 445.178 L 983.152 446.439 L 982.403 447.713 L 981.679 449.001 L 980.981 450.303 L 980.310 451.619 L 979.670 452.951 L 979.061 454.297 L 978.486 455.658 L 977.947 457.034 L 977.448 458.424 L 976.991 459.829 L 976.578 461.247 L 976.212 462.679 L 975.896 464.122 L 975.633 465.576 L 975.426 467.039 L 975.276 468.508 L 975.186 469.983 L 975.158 471.460 L 975.193 472.937 L 975.293 474.411 L 975.458 475.879 L 975.689 477.338 L 975.986 478.785 L 976.349 480.217 L 976.777 481.631 L 977.269 483.024 L 977.823 484.393 L 978.438 485.737 L 979.112 487.051 L 979.843 488.335 L 980.627 489.587 L 981.463 490.805 L 982.348 491.988 L 983.280 493.135 L 984.255 494.245 L 985.271 495.317 L 986.326 496.351 L 987.418 497.347 L 988.543 498.304 L 989.700 499.222 L 990.887 500.102 L 992.100 500.946 L 993.335 501.757 L 994.590 502.536 L 995.864 503.284 L 997.155 504.003 L 998.462 504.692 L 999.783 505.354 L 1001.118 505.988 L 1002.464 506.596 L 1003.822 507.178 L 1005.190 507.736 L 1006.568 508.270 L 1007.954 508.782 L 1009.348 509.271 L 1010.750 509.739 L 1012.158 510.187 L 1013.572 510.615 L 1014.992 511.023 L 1016.417 511.413 L 1017.847 511.786 L 1019.281 512.141 L 1020.719 512.479 L 1022.161 512.802 L 1023.606 513.108 L 1025.055 513.400 L 1026.506 513.677 L 1027.960 513.940 L 1029.416 514.189 L 1030.875 514.425 L 1032.336 514.648 L 1033.798 514.859 L 1035.262 515.058 L 1036.728 515.245 L 1038.195 515.421 L 1039.663 515.585 L 1041.133 515.738 L 1042.603 515.880 L 1044.075 516.011 L 1045.548 516.131 L 1047.021 516.240 L 1048.495 516.339 L 1049.970 516.427 L 1051.446 516.504 L 1052.922 516.571 L 1054.398 516.628 L 1055.875 516.674 L 1057.352 516.710 L 1058.829 516.735 L 1060.307 516.750 L 1061.784 516.755 L 1063.262 516.750 L 1064.739 516.734 L 1066.217 516.708 L 1067.694 516.672 L 1069.171 516.625 L 1070.647 516.567 L 1072.123 516.499 L 1073.598 516.420 L 1075.073 516.330 L 1076.547 516.229 L 1078.020 516.117 L 1079.493 515.994 L 1080.964 515.859 L 1082.434 515.713 L 1083.903 515.555 L 1085.371 515.384 L 1086.837 515.202 L 1088.302 515.006 L 1089.765 514.798 L 1091.225 514.576 L 1092.684 514.341 L 1094.140 514.091 L 1095.594 513.827 L 1097.045 513.548 L 1098.493 513.252 L 1099.937 512.941 L 1101.377 512.612 L 1102.814 512.266 L 1104.245 511.900 L 1105.672 511.516 L 1107.093 511.110 L 1108.507 510.682 L 1109.914 510.231 L 1111.313 509.755 L 1112.702 509.253 L 1114.081 508.722 L 1115.447 508.160 L 1116.799 507.564 L 1118.136 506.936 L 1119.466 506.292 L 1120.795 505.646 L 1122.124 504.999 L 1123.451 504.350 L 1124.777 503.699 L 1126.103 503.046 L 1127.426 502.390 L 1128.749 501.731 L 1130.070 501.069 L 1131.389 500.403 L 1132.707 499.734 L 1134.022 499.062 L 1135.335 498.385 L 1136.647 497.704 L 1137.956 497.018 L 1139.262 496.328 L 1140.566 495.633 L 1141.867 494.933 L 1143.165 494.227 L 1144.460 493.516 L 1145.752 492.798 L 1147.040 492.075 L 1148.325 491.345 L 1149.606 490.609 L 1150.883 489.866 L 1152.156 489.117 L 1153.425 488.360 L 1154.690 487.595 L 1155.949 486.823 L 1157.204 486.044 L 1158.454 485.256 L 1159.699 484.460 L 1160.939 483.655 L 1162.172 482.842 L 1163.400 482.020 L 1164.622 481.190 L 1165.837 480.349 L 1167.046 479.500 L 1168.248 478.641 L 1169.443 477.772 L 1170.631 476.893 L 1171.811 476.004 L 1172.984 475.105 L 1174.148 474.196 L 1175.306 473.277 L 1176.457 472.351 L 1177.601 471.416 L 1178.739 470.474 L 1179.871 469.524 L 1180.996 468.566 L 1182.115 467.601 L 1183.228 466.629 L 1184.334 465.650 L 1185.435 464.665 L 1186.530 463.672 L 1187.618 462.673 L 1188.701 461.668 L 1189.778 460.657 L 1190.849 459.639 L 1191.915 458.615 L 1192.975 457.586 L 1194.029 456.551 L 1195.078 455.510 L 1196.122 454.464 L 1197.160 453.413 L 1198.193 452.357 L 1199.221 451.295 L 1200.243 450.229 L 1201.261 449.158 L 1202.274 448.082 L 1203.281 447.001 L 1204.284 445.916 L 1205.282 444.827 L 1206.276 443.733 L 1207.265 442.635 L 1208.249 441.533 L 1209.229 440.427 L 1210.204 439.317 L 1211.175 438.204 L 1212.142 437.087 L 1213.105 435.966 L 1214.063 434.841 L 1215.018 433.714 L 1215.969 432.582 L 1216.915 431.448 L 1217.858 430.310 L 1218.797 429.170 L 1219.733 428.026 L 1220.665 426.880 L 1221.593 425.730 L 1222.513 424.574 L 1223.414 423.403 L 1224.296 422.218 L 1225.160 421.019 L 1226.006 419.808 L 1226.835 418.584 L 1227.646 417.350 L 1228.442 416.105 L 1229.222 414.850 L 1229.987 413.586 L 1230.738 412.313 L 1231.475 411.033 L 1232.200 409.745 L 1232.912 408.451 L 1233.614 407.151 L 1234.305 405.845 L 1234.987 404.534 L 1235.660 403.218 L 1236.324 401.899 L 1236.982 400.576 L 1237.634 399.250 L 1238.280 397.921 L 1238.921 396.590 L 1239.559 395.257 L 1240.194 393.923 L 1240.828 392.588 L 1241.460 391.253 L 1242.093 389.918 L 1242.726 388.583 L 1243.360 387.248 L 1243.994 385.913 L 1244.627 384.578 L 1245.259 383.243 L 1245.889 381.907 L 1246.518 380.569 L 1247.144 379.231 L 1247.768 377.892 L 1248.389 376.551 L 1249.007 375.209 L 1249.621 373.865 L 1250.230 372.519 L 1250.836 371.171 L 1251.436 369.821 L 1252.032 368.469 L 1252.621 367.114 L 1253.205 365.757 L 1253.783 364.397 L 1254.353 363.034 L 1254.917 361.668 L 1255.473 360.299 L 1256.021 358.927 L 1256.561 357.552 L 1257.093 356.173 L 1257.615 354.791 L 1258.128 353.406 L 1258.631 352.016 L 1259.123 350.623 L 1259.605 349.226 L 1260.075 347.826 L 1260.535 346.421 L 1260.982 345.013 L 1261.416 343.601 L 1261.838 342.185 L 1262.247 340.765 L 1262.641 339.341 L 1263.021 337.913 L 1263.385 336.481 L 1263.735 335.046 L 1264.071 333.607 L 1264.393 332.165 L 1264.701 330.720 L 1264.995 329.272 L 1265.276 327.821 L 1265.544 326.368 L 1265.800 324.913 L 1266.043 323.456 L 1266.274 321.996 L 1266.493 320.535 L 1266.701 319.072 L 1266.897 317.608 L 1267.082 316.142 L 1267.256 314.675 L 1267.420 313.206 L 1267.574 311.737 L 1267.717 310.266 L 1267.850 308.795 L 1267.974 307.323 L 1268.089 305.849 L 1268.194 304.376 L 1268.290 302.901 L 1268.378 301.426 L 1268.457 299.951 L 1268.529 298.475 L 1268.592 296.999 L 1268.647 295.522 L 1268.696 294.046 L 1268.741 292.569 L 1268.784 291.092 L 1268.823 289.615 L 1268.860 288.138 L 1268.892 286.661 L 1268.920 285.184 L 1268.945 283.706 L 1268.964 282.229 L 1268.979 280.751 L 1268.989 279.274 L 1268.993 277.796 L 1268.992 276.319 L 1268.984 274.841 L 1268.971 273.364 L 1268.951 271.886 L 1268.924 270.409 L 1268.890 268.932 L 1268.848 267.455 L 1268.799 265.978 L 1268.742 264.502 L 1268.676 263.026 L 1268.602 261.550 L 1268.520 260.075 L 1268.428 258.600 L 1268.326 257.126 L 1268.215 255.653 L 1268.094 254.180 L 1267.962 252.709 L 1267.820 251.238 L 1267.667 249.768 L 1267.502 248.300 L 1267.326 246.833 L 1267.138 245.368 L 1266.938 243.904 L 1266.726 242.442 L 1266.500 240.981 L 1266.262 239.523 L 1266.010 238.067 L 1265.744 236.614 L 1265.465 235.163 L 1265.171 233.715 L 1264.864 232.270 L 1264.544 230.827 L 1264.210 229.388 L 1263.864 227.951 L 1263.505 226.518 L 1263.134 225.088 L 1262.751 223.661 L 1262.356 222.237 L 1261.950 220.817 L 1261.533 219.399 L 1261.104 217.985 L 1260.666 216.574 L 1260.217 215.167 L 1259.757 213.762 L 1259.288 212.361 L 1258.810 210.963 L 1258.322 209.569 L 1257.824 208.177 L 1257.318 206.789 L 1256.803 205.404 L 1256.280 204.023 L 1255.748 202.644 L 1255.208 201.269 L 1254.661 199.896 L 1254.105 198.527 L 1253.542 197.161 L 1252.972 195.798 L 1252.395 194.438 L 1251.811 193.081 L 1251.220 191.726 L 1250.623 190.375 L 1250.019 189.026 L 1249.409 187.681 L 1248.793 186.338 L 1248.172 184.997 L 1247.545 183.659 L 1246.914 182.323 L 1246.278 180.990 L 1245.637 179.658 L 1244.991 178.329 L 1244.340 177.003 L 1243.684 175.679 L 1243.022 174.358 L 1242.355 173.040 L 1241.682 171.725 L 1241.003 170.412 L 1240.317 169.103 L 1239.626 167.797 L 1238.929 166.495 L 1238.224 165.196 L 1237.514 163.901 L 1236.796 162.609 L 1236.072 161.321 L 1235.340 160.038 L 1234.601 158.758 L 1233.855 157.483 L 1233.101 156.212 L 1232.340 154.946 L 1231.571 153.684 L 1230.794 152.428 L 1230.008 151.176 L 1229.215 149.930 L 1228.413 148.689 L 1227.602 147.454 L 1226.783 146.224 L 1225.955 145.000 L 1225.118 143.783 L 1224.271 142.572 L 1223.416 141.367 L 1222.551 140.169 L 1221.676 138.978 L 1220.792 137.795 L 1219.898 136.618 L 1218.993 135.450 L 1218.079 134.289 L 1217.156 133.136 L 1216.225 131.989 L 1215.286 130.847 L 1214.340 129.713 L 1213.386 128.584 L 1212.425 127.462 L 1211.457 126.346 L 1210.481 125.236 L 1209.498 124.133 L 1208.507 123.037 L 1207.509 121.947 L 1206.504 120.864 L 1205.492 119.788 L 1204.472 118.719 L 1203.444 117.657 L 1202.410 116.603 L 1201.368 115.555 L 1200.319 114.515 L 1199.262 113.482 L 1198.198 112.457 L 1197.127 111.439 L 1196.048 110.429 L 1194.962 109.428 L 1193.869 108.434 L 1192.768 107.448 L 1191.660 106.471 L 1190.544 105.502 L 1189.421 104.542 L 1188.290 103.591 L 1187.152 102.649 L 1186.007 101.715 L 1184.854 100.791 L 1183.694 99.877 L 1182.526 98.972 L 1181.350 98.076 L 1180.167 97.191 L 1178.977 96.316 L 1177.779 95.451 L 1176.573 94.597 L 1175.360 93.754 L 1174.140 92.920 L 1172.917 92.092 L 1171.689 91.270 L 1170.457 90.454 L 1169.221 89.644 L 1167.981 88.840 L 1166.737 88.043 L 1165.490 87.252 L 1164.238 86.466 L 1162.983 85.687 L 1161.724 84.914 L 1160.461 84.147 L 1159.194 83.387 L 1157.923 82.632 L 1156.649 81.884 L 1155.372 81.142 L 1154.090 80.406 L 1152.806 79.677 L 1151.517 78.953 L 1150.225 78.236 L 1148.930 77.526 L 1147.631 76.822 L 1146.329 76.124 L 1145.023 75.432 L 1143.714 74.747 L 1142.401 74.069 L 1141.085 73.397 L 1139.766 72.731 L 1138.444 72.072 L 1137.118 71.420 L 1135.789 70.775 L 1134.457 70.136 L 1133.121 69.504 L 1131.782 68.878 L 1130.441 68.260 L 1129.096 67.648 L 1127.747 67.043 L 1126.396 66.446 L 1125.042 65.855 L 1123.684 65.271 L 1122.324 64.695 L 1120.961 64.126 L 1119.594 63.564 L 1118.225 63.009 L 1116.852 62.462 L 1115.477 61.922 L 1114.098 61.390 L 1112.717 60.865 L 1111.333 60.348 L 1109.946 59.839 L 1108.556 59.338 L 1107.161 58.850 L 1105.763 58.373 L 1104.361 57.907 L 1102.955 57.452 L 1101.546 57.008 L 1100.133 56.575 L 1098.718 56.152 L 1097.299 55.739 L 1095.877 55.336 L 1094.453 54.942 L 1093.027 54.558 L 1091.598 54.182 L 1090.166 53.815 L 1088.733 53.457 L 1087.298 53.107 L 1085.860 52.765 L 1084.421 52.430 L 1082.980 52.103 L 1081.538 51.783 L 1080.094 51.470 L 1078.648 51.163 L 1077.202 50.863 L 1075.754 50.569 L 1074.305 50.280 L 1072.854 49.997 L 1071.403 49.719 L 1069.951 49.446 L 1068.498 49.178 L 1067.044 48.914 L 1065.590 48.655 L 1064.135 48.399 L 1062.679 48.147 L 1061.222 47.898 L 1059.766 47.652 L 1058.308 47.409 L 1056.850 47.168 L 1055.392 46.929 L 1053.934 46.693 L 1052.475 46.458 L 1051.016 46.224 L 1049.557 45.991 L 1048.098 45.759 L 1046.638 45.528 L 1045.179 45.297 L 1043.720 45.065 L 1042.261 44.834 L 1040.801 44.601 L 1039.342 44.368 L 1037.882 44.145 L 1036.420 43.933 L 1034.955 43.734 L 1033.490 43.547 L 1032.023 43.371 L 1030.554 43.207 L 1029.085 43.053 L 1027.614 42.910 L 1026.143 42.776 L 1024.671 42.653 L 1023.197 42.538 L 1021.724 42.433 L 1020.249 42.336 L 1018.774 42.248 L 1017.299 42.167 L 1015.823 42.094 L 1014.347 42.028 L 1012.871 41.969 L 1011.394 41.917 L 1009.918 41.870 L 1008.441 41.829 L 1006.964 41.794 L 1005.486 41.763 L 1004.009 41.737 L 1002.532 41.715 Z" fill="none" stroke="black" stroke-width="25.085" stroke-linejoin="round" stroke-linecap="round"/></svg>