<svg xmlns="http://www.w3.org/2000/svg" viewBox="-121.983 -123.459 3246.385 1579.392" width="100%" height="100%"><path d="M 2899.100 996.100 L 2898.839 993.196 L 2898.512 990.298 L 2898.117 987.409 L 2897.655 984.530 L 2897.126 981.663 L 2896.529 978.809 L 2895.865 975.969 L 2895.134 973.147 L 2894.335 970.342 L 2893.469 967.558 L 2892.535 964.796 L 2891.533 962.057 L 2890.464 959.345 L 2889.327 956.660 L 2888.122 954.004 L 2886.850 951.381 L 2885.510 948.791 L 2884.103 946.237 L 2882.630 943.721 L 2881.090 941.245 L 2879.483 938.811 L 2877.812 936.422 L 2876.075 934.080 L 2874.274 931.787 L 2872.410 929.544 L 2870.483 927.356 L 2868.496 925.222 L 2866.449 923.145 L 2864.346 921.125 L 2862.188 919.164 L 2859.978 917.263 L 2857.718 915.420 L 2855.409 913.638 L 2853.056 911.918 L 2850.658 910.258 L 2848.218 908.662 L 2845.738 907.128 L 2843.219 905.659 L 2840.664 904.254 L 2838.073 902.916 L 2835.449 901.645 L 2832.793 900.442 L 2830.106 899.308 L 2827.391 898.246 L 2824.648 897.256 L 2821.880 896.339 L 2819.088 895.498 L 2816.274 894.734 L 2813.440 894.049 L 2810.588 893.445 L 2807.719 892.923 L 2804.836 892.486 L 2801.941 892.136 L 2799.037 891.879 L 2796.128 891.680 L 2793.215 891.532 L 2790.301 891.428 L 2787.386 891.365 L 2784.471 891.336 L 2781.555 891.336 L 2778.639 891.359 L 2775.723 891.400 L 2772.808 891.455 L 2769.893 891.517 L 2766.977 891.581 L 2764.062 891.641 L 2761.147 891.693 L 2758.231 891.725 L 2755.315 891.756 L 2752.400 891.787 L 2749.484 891.820 L 2746.568 891.856 L 2743.653 891.894 L 2740.737 891.936 L 2737.822 891.982 L 2734.906 892.033 L 2731.991 892.088 L 2729.075 892.137 L 2726.160 892.180 L 2723.244 892.220 L 2720.329 892.258 L 2717.413 892.295 L 2714.497 892.331 L 2711.582 892.367 L 2708.666 892.403 L 2705.750 892.439 L 2702.835 892.478 L 2699.919 892.518 L 2697.003 892.561 L 2694.088 892.606 L 2691.172 892.647 L 2688.257 892.688 L 2685.341 892.728 L 2682.426 892.768 L 2679.510 892.807 L 2676.594 892.845 L 2673.679 892.882 L 2670.763 892.917 L 2667.847 892.951 L 2664.932 892.983 L 2662.016 893.013 L 2659.100 893.041 L 2656.184 893.067 L 2653.269 893.090 L 2650.353 893.120 L 2647.437 893.158 L 2644.522 893.195 L 2641.606 893.233 L 2638.690 893.270 L 2635.775 893.308 L 2632.859 893.346 L 2629.943 893.383 L 2627.028 893.421 L 2624.112 893.459 L 2621.196 893.496 L 2618.281 893.534 L 2615.365 893.571 L 2612.450 893.609 L 2609.534 893.647 L 2606.618 893.684 L 2603.703 893.721 L 2600.787 893.757 L 2597.871 893.793 L 2594.956 893.829 L 2592.040 893.865 L 2589.124 893.901 L 2586.209 893.937 L 2583.293 893.973 L 2580.377 894.009 L 2577.462 894.045 L 2574.546 894.081 L 2571.630 894.117 L 2568.715 894.153 L 2565.799 894.189 L 2562.883 894.225 L 2559.968 894.261 L 2557.052 894.297 L 2554.136 894.333 L 2551.221 894.369 L 2548.305 894.405 L 2545.389 894.441 L 2542.474 894.477 L 2539.558 894.513 L 2536.642 894.548 L 2533.727 894.584 L 2530.811 894.620 L 2527.895 894.656 L 2524.980 894.692 L 2522.064 894.728 L 2519.149 894.764 L 2516.233 894.800 L 2513.317 894.836 L 2510.402 894.872 L 2507.486 894.908 L 2504.570 894.945 L 2501.655 894.982 L 2498.739 895.019 L 2495.823 895.056 L 2492.908 895.094 L 2489.992 895.131 L 2487.076 895.168 L 2484.161 895.205 L 2481.245 895.242 L 2478.329 895.279 L 2475.414 895.316 L 2472.498 895.354 L 2469.583 895.391 L 2466.667 895.428 L 2463.751 895.465 L 2460.836 895.502 L 2457.920 895.542 L 2455.004 895.583 L 2452.089 895.623 L 2449.173 895.663 L 2446.258 895.703 L 2443.342 895.744 L 2440.426 895.784 L 2437.511 895.824 L 2434.595 895.864 L 2431.680 895.904 L 2428.764 895.945 L 2425.848 895.985 L 2422.933 896.025 L 2420.017 896.065 L 2417.102 896.106 L 2414.186 896.150 L 2411.270 896.191 L 2408.355 896.229 L 2405.439 896.266 L 2402.523 896.302 L 2399.608 896.336 L 2396.692 896.371 L 2393.776 896.406 L 2390.861 896.441 L 2387.945 896.478 L 2385.030 896.517 L 2382.114 896.559 L 2379.198 896.601 L 2376.283 896.633 L 2373.367 896.669 L 2370.451 896.707 L 2367.536 896.748 L 2364.620 896.790 L 2361.705 896.833 L 2358.789 896.874 L 2355.873 896.914 L 2352.958 896.951 L 2350.042 896.984 L 2347.126 897.002 L 2344.210 897.021 L 2341.295 897.055 L 2338.379 897.100 L 2335.464 897.151 L 2332.548 897.204 L 2329.633 897.255 L 2326.717 897.299 L 2323.802 897.339 L 2320.886 897.378 L 2317.970 897.409 L 2315.055 897.424 L 2312.139 897.414 L 2309.223 897.369 L 2306.309 897.283 L 2303.396 897.145 L 2300.489 896.924 L 2297.589 896.622 L 2294.697 896.246 L 2291.816 895.796 L 2288.948 895.273 L 2286.093 894.678 L 2283.255 894.012 L 2280.433 893.276 L 2277.631 892.470 L 2274.850 891.595 L 2272.090 890.652 L 2269.355 889.641 L 2266.646 888.564 L 2263.963 887.421 L 2261.310 886.213 L 2258.686 884.940 L 2256.095 883.603 L 2253.537 882.203 L 2251.015 880.741 L 2248.529 879.216 L 2246.082 877.631 L 2243.675 875.985 L 2241.310 874.279 L 2238.989 872.514 L 2236.714 870.691 L 2234.486 868.810 L 2232.313 866.866 L 2230.201 864.856 L 2228.150 862.783 L 2226.163 860.649 L 2224.239 858.458 L 2222.381 856.211 L 2220.588 853.912 L 2218.861 851.562 L 2217.201 849.165 L 2215.609 846.722 L 2214.085 844.237 L 2212.629 841.710 L 2211.242 839.146 L 2209.924 836.545 L 2208.675 833.910 L 2207.495 831.244 L 2206.386 828.547 L 2205.347 825.823 L 2204.378 823.072 L 2203.480 820.298 L 2202.653 817.502 L 2201.898 814.686 L 2201.214 811.852 L 2200.602 809.001 L 2200.063 806.135 L 2199.597 803.257 L 2199.202 800.368 L 2198.879 797.470 L 2198.633 794.565 L 2198.461 791.654 L 2198.366 788.740 L 2198.345 785.824 L 2198.401 782.909 L 2198.531 779.996 L 2198.737 777.087 L 2199.019 774.185 L 2199.376 771.291 L 2199.808 768.408 L 2200.316 765.537 L 2200.899 762.680 L 2201.558 759.839 L 2202.292 757.017 L 2203.101 754.216 L 2203.986 751.438 L 2204.945 748.684 L 2205.980 745.958 L 2207.089 743.262 L 2208.273 740.597 L 2209.531 737.967 L 2210.863 735.373 L 2212.268 732.818 L 2213.746 730.305 L 2215.297 727.835 L 2216.919 725.412 L 2218.609 723.036 L 2220.369 720.712 L 2222.195 718.439 L 2224.082 716.216 L 2226.026 714.043 L 2228.022 711.917 L 2230.065 709.837 L 2232.152 707.801 L 2234.279 705.805 L 2236.441 703.849 L 2238.635 701.929 L 2240.859 700.043 L 2243.108 698.188 L 2245.381 696.361 L 2247.673 694.559 L 2249.983 692.779 L 2252.308 691.019 L 2254.638 689.265 L 2256.988 687.539 L 2259.337 685.812 L 2261.680 684.076 L 2264.016 682.331 L 2266.345 680.577 L 2268.667 678.813 L 2271.000 677.064 L 2273.341 675.326 L 2275.682 673.588 L 2278.024 671.850 L 2280.365 670.112 L 2282.706 668.373 L 2285.047 666.634 L 2287.388 664.896 L 2289.729 663.158 L 2292.071 661.421 L 2294.413 659.684 L 2296.758 657.951 L 2299.104 656.220 L 2301.449 654.486 L 2303.793 652.752 L 2306.135 651.016 L 2308.478 649.279 L 2310.819 647.541 L 2313.160 645.802 L 2315.500 644.063 L 2317.840 642.323 L 2320.180 640.583 L 2322.519 638.843 L 2324.859 637.102 L 2327.199 635.362 L 2329.540 633.624 L 2331.886 631.893 L 2334.232 630.161 L 2336.577 628.428 L 2338.922 626.695 L 2341.265 624.960 L 2343.608 623.224 L 2345.951 621.488 L 2348.293 619.751 L 2350.635 618.013 L 2352.976 616.275 L 2355.317 614.537 L 2357.658 612.798 L 2359.999 611.060 L 2362.339 609.321 L 2364.680 607.582 L 2367.021 605.844 L 2369.363 604.106 L 2371.707 602.371 L 2374.050 600.636 L 2376.392 598.900 L 2378.734 597.163 L 2381.076 595.425 L 2383.417 593.686 L 2385.757 591.947 L 2388.098 590.208 L 2390.438 588.469 L 2392.778 586.729 L 2395.118 584.989 L 2397.458 583.249 L 2399.798 581.510 L 2402.139 579.771 L 2404.479 578.032 L 2406.821 576.294 L 2409.162 574.556 L 2411.504 572.819 L 2413.848 571.085 L 2416.192 569.350 L 2418.534 567.614 L 2420.876 565.877 L 2423.218 564.139 L 2425.559 562.401 L 2427.900 560.662 L 2430.240 558.923 L 2432.580 557.183 L 2434.920 555.443 L 2437.260 553.704 L 2439.600 551.964 L 2441.941 550.224 L 2444.281 548.485 L 2446.622 546.746 L 2448.963 545.008 L 2451.304 543.270 L 2453.646 541.533 L 2455.991 539.800 L 2458.337 538.068 L 2460.681 536.334 L 2463.024 534.598 L 2465.366 532.861 L 2467.708 531.123 L 2470.048 529.385 L 2472.389 527.645 L 2474.729 525.906 L 2477.069 524.166 L 2479.409 522.427 L 2481.750 520.688 L 2484.092 518.950 L 2486.434 517.214 L 2488.777 515.479 L 2491.122 513.745 L 2493.468 512.014 L 2495.815 510.283 L 2498.161 508.551 L 2500.506 506.818 L 2502.849 505.084 L 2505.192 503.348 L 2507.534 501.611 L 2509.876 499.873 L 2512.217 498.134 L 2514.557 496.395 L 2516.897 494.655 L 2519.237 492.915 L 2521.576 491.175 L 2523.916 489.434 L 2526.256 487.694 L 2528.597 485.956 L 2530.940 484.220 L 2533.280 482.481 L 2535.617 480.737 L 2537.951 478.990 L 2540.284 477.241 L 2542.616 475.490 L 2544.948 473.739 L 2547.281 471.991 L 2549.622 470.251 L 2551.968 468.520 L 2554.318 466.794 L 2556.669 465.068 L 2559.016 463.339 L 2561.357 461.601 L 2563.689 459.850 L 2566.009 458.083 L 2568.312 456.295 L 2570.596 454.483 L 2572.857 452.641 L 2575.091 450.768 L 2577.295 448.858 L 2579.463 446.908 L 2581.601 444.925 L 2583.713 442.916 L 2585.800 440.879 L 2587.860 438.816 L 2589.892 436.725 L 2591.896 434.606 L 2593.868 432.459 L 2595.809 430.283 L 2597.717 428.078 L 2599.590 425.843 L 2601.427 423.578 L 2603.225 421.283 L 2604.984 418.957 L 2606.707 416.605 L 2608.396 414.228 L 2610.051 411.828 L 2611.672 409.404 L 2613.259 406.958 L 2614.810 404.489 L 2616.327 401.998 L 2617.808 399.487 L 2619.253 396.954 L 2620.662 394.401 L 2622.035 391.829 L 2623.370 389.237 L 2624.669 386.626 L 2625.930 383.997 L 2627.153 381.350 L 2628.337 378.685 L 2629.482 376.004 L 2630.588 373.306 L 2631.653 370.592 L 2632.678 367.862 L 2633.663 365.117 L 2634.605 362.358 L 2635.506 359.585 L 2636.363 356.798 L 2637.177 353.998 L 2637.948 351.186 L 2638.673 348.362 L 2639.354 345.526 L 2639.990 342.681 L 2640.584 339.826 L 2641.137 336.963 L 2641.650 334.093 L 2642.122 331.215 L 2642.554 328.332 L 2642.947 325.443 L 2643.300 322.548 L 2643.614 319.649 L 2643.889 316.746 L 2644.125 313.840 L 2644.323 310.931 L 2644.483 308.020 L 2644.605 305.106 L 2644.690 302.192 L 2644.736 299.276 L 2644.745 296.360 L 2644.717 293.445 L 2644.651 290.530 L 2644.548 287.616 L 2644.408 284.703 L 2644.231 281.793 L 2644.016 278.885 L 2643.764 275.980 L 2643.475 273.078 L 2643.149 270.181 L 2642.785 267.288 L 2642.384 264.400 L 2641.944 261.517 L 2641.468 258.640 L 2640.951 255.771 L 2640.391 252.909 L 2639.786 250.057 L 2639.137 247.214 L 2638.444 244.382 L 2637.706 241.561 L 2636.925 238.752 L 2636.099 235.955 L 2635.230 233.172 L 2634.317 230.403 L 2633.359 227.649 L 2632.359 224.910 L 2631.314 222.188 L 2630.226 219.482 L 2629.095 216.795 L 2627.921 214.126 L 2626.704 211.476 L 2625.445 208.846 L 2624.143 206.237 L 2622.799 203.650 L 2621.413 201.084 L 2619.986 198.542 L 2618.517 196.023 L 2617.008 193.528 L 2615.458 191.058 L 2613.867 188.614 L 2612.238 186.196 L 2610.568 183.806 L 2608.864 181.440 L 2607.130 179.095 L 2605.367 176.773 L 2603.574 174.474 L 2601.750 172.199 L 2599.895 169.949 L 2598.010 167.725 L 2596.095 165.526 L 2594.150 163.354 L 2592.175 161.208 L 2590.170 159.091 L 2588.136 157.002 L 2586.072 154.942 L 2583.979 152.912 L 2581.857 150.912 L 2579.707 148.943 L 2577.528 147.006 L 2575.320 145.100 L 2573.085 143.228 L 2570.822 141.389 L 2568.532 139.585 L 2566.215 137.814 L 2563.877 136.072 L 2561.514 134.364 L 2559.124 132.693 L 2556.709 131.059 L 2554.268 129.465 L 2551.801 127.909 L 2549.310 126.395 L 2546.794 124.921 L 2544.253 123.491 L 2541.688 122.104 L 2539.099 120.762 L 2536.488 119.465 L 2533.853 118.216 L 2531.197 117.014 L 2528.519 115.860 L 2525.820 114.757 L 2523.101 113.704 L 2520.362 112.702 L 2517.605 111.754 L 2514.830 110.858 L 2512.038 110.017 L 2509.230 109.234 L 2506.407 108.502 L 2503.573 107.819 L 2500.727 107.182 L 2497.872 106.589 L 2495.009 106.039 L 2492.138 105.530 L 2489.260 105.059 L 2486.377 104.625 L 2483.489 104.225 L 2480.596 103.858 L 2477.700 103.520 L 2474.800 103.211 L 2471.898 102.927 L 2468.994 102.667 L 2466.088 102.431 L 2463.180 102.217 L 2460.270 102.026 L 2457.359 101.856 L 2454.447 101.710 L 2451.534 101.590 L 2448.619 101.495 L 2445.704 101.428 L 2442.789 101.398 L 2439.873 101.374 L 2436.957 101.342 L 2434.041 101.314 L 2431.126 101.302 L 2428.210 101.300 L 2425.294 101.300 L 2422.378 101.300 L 2419.462 101.300 L 2416.546 101.300 L 2413.630 101.300 L 2410.714 101.300 L 2407.799 101.300 L 2404.883 101.300 L 2401.967 101.300 L 2399.051 101.300 L 2396.135 101.300 L 2393.219 101.300 L 2390.303 101.300 L 2387.387 101.300 L 2384.472 101.300 L 2381.556 101.300 L 2378.640 101.300 L 2375.724 101.300 L 2372.808 101.300 L 2369.892 101.300 L 2366.976 101.300 L 2364.060 101.300 L 2361.145 101.300 L 2358.229 101.300 L 2355.313 101.300 L 2352.397 101.300 L 2349.481 101.300 L 2346.565 101.300 L 2343.649 101.300 L 2340.733 101.300 L 2337.817 101.300 L 2334.902 101.300 L 2331.986 101.300 L 2329.070 101.300 L 2326.154 101.300 L 2323.238 101.300 L 2320.322 101.300 L 2317.406 101.300 L 2314.490 101.300 L 2311.575 101.301 L 2308.660 101.366 L 2305.751 101.558 L 2302.856 101.903 L 2299.987 102.416 L 2297.156 103.110 L 2294.378 103.992 L 2291.672 105.077 L 2289.053 106.356 L 2286.526 107.807 L 2284.089 109.407 L 2281.736 111.129 L 2279.460 112.950 L 2277.248 114.850 L 2275.088 116.808 L 2272.966 118.808 L 2270.873 120.838 L 2268.792 122.880 L 2266.694 124.905 L 2264.588 126.922 L 2262.479 128.936 L 2260.365 130.944 L 2258.245 132.946 L 2256.119 134.942 L 2253.987 136.931 L 2251.847 138.911 L 2249.698 140.883 L 2247.541 142.844 L 2245.374 144.795 L 2243.226 146.767 L 2241.073 148.733 L 2238.843 150.611 L 2236.469 152.301 L 2233.928 153.723 L 2231.247 154.864 L 2228.468 155.740 L 2225.626 156.382 L 2222.745 156.823 L 2219.843 157.100 L 2216.931 157.246 L 2214.016 157.294 L 2211.100 157.300 L 2208.184 157.300 L 2205.268 157.300 L 2202.352 157.300 L 2199.437 157.300 L 2196.521 157.300 L 2193.605 157.300 L 2190.689 157.300 L 2187.773 157.300 L 2184.857 157.300 L 2181.941 157.300 L 2179.025 157.300 L 2176.109 157.300 L 2173.194 157.300 L 2170.278 157.300 L 2167.362 157.300 L 2164.446 157.300 L 2161.530 157.300 L 2158.614 157.300 L 2155.698 157.300 L 2152.782 157.300 L 2149.867 157.300 L 2146.951 157.300 L 2144.035 157.300 L 2141.119 157.300 L 2138.203 157.257 L 2135.293 157.093 L 2132.394 156.783 L 2129.516 156.323 L 2126.665 155.713 L 2123.851 154.951 L 2121.082 154.040 L 2118.366 152.982 L 2115.710 151.780 L 2113.121 150.440 L 2110.604 148.969 L 2108.165 147.372 L 2105.807 145.658 L 2103.533 143.835 L 2101.314 141.943 L 2099.136 140.005 L 2096.979 138.043 L 2094.835 136.066 L 2092.705 134.075 L 2090.585 132.073 L 2088.474 130.061 L 2086.370 128.042 L 2084.273 126.017 L 2082.180 123.987 L 2080.089 121.954 L 2078.012 119.907 L 2075.915 117.881 L 2073.767 115.910 L 2071.558 114.007 L 2069.283 112.184 L 2066.939 110.450 L 2064.525 108.816 L 2062.039 107.293 L 2059.482 105.892 L 2056.859 104.620 L 2054.155 103.533 L 2051.366 102.690 L 2048.516 102.086 L 2045.629 101.685 L 2042.723 101.446 L 2039.810 101.329 L 2036.895 101.291 L 2033.979 101.294 L 2031.063 101.299 L 2028.147 101.300 L 2025.231 101.300 L 2022.315 101.300 L 2019.400 101.300 L 2016.484 101.300 L 2013.568 101.300 L 2010.652 101.300 L 2007.736 101.300 L 2004.820 101.300 L 2001.904 101.300 L 1998.988 101.300 L 1996.072 101.300 L 1993.157 101.300 L 1990.241 101.300 L 1987.325 101.300 L 1984.409 101.300 L 1981.493 101.300 L 1978.577 101.300 L 1975.661 101.300 L 1972.745 101.300 L 1969.830 101.300 L 1966.914 101.300 L 1963.998 101.300 L 1961.082 101.300 L 1958.166 101.300 L 1955.250 101.300 L 1952.334 101.300 L 1949.418 101.300 L 1946.503 101.300 L 1943.587 101.300 L 1940.671 101.300 L 1937.755 101.300 L 1934.839 101.300 L 1931.923 101.300 L 1929.007 101.300 L 1926.091 101.300 L 1923.175 101.300 L 1920.260 101.300 L 1917.344 101.300 L 1914.428 101.300 L 1911.512 101.300 L 1908.596 101.300 L 1905.680 101.300 L 1902.764 101.300 L 1899.848 101.300 L 1896.933 101.300 L 1894.017 101.300 L 1891.101 101.300 L 1888.185 101.300 L 1885.269 101.300 L 1882.353 101.300 L 1879.437 101.300 L 1876.521 101.300 L 1873.606 101.300 L 1870.690 101.300 L 1867.774 101.300 L 1864.858 101.300 L 1861.942 101.300 L 1859.026 101.300 L 1856.110 101.300 L 1853.194 101.300 L 1850.278 101.300 L 1847.363 101.300 L 1844.447 101.300 L 1841.531 101.300 L 1838.615 101.300 L 1835.699 101.300 L 1832.783 101.300 L 1829.867 101.300 L 1826.951 101.300 L 1824.036 101.300 L 1821.120 101.300 L 1818.204 101.300 L 1815.288 101.300 L 1812.372 101.300 L 1809.456 101.300 L 1806.540 101.300 L 1803.624 101.300 L 1800.709 101.300 L 1797.793 101.300 L 1794.877 101.300 L 1791.961 101.300 L 1789.045 101.300 L 1786.129 101.300 L 1783.213 101.300 L 1780.297 101.300 L 1777.381 101.300 L 1774.466 101.300 L 1771.550 101.300 L 1768.634 101.300 L 1765.718 101.300 L 1762.802 101.300 L 1759.886 101.300 L 1756.970 101.300 L 1754.054 101.300 L 1751.139 101.300 L 1748.223 101.300 L 1745.307 101.300 L 1742.391 101.300 L 1739.475 101.300 L 1736.559 101.300 L 1733.643 101.300 L 1730.727 101.300 L 1727.812 101.300 L 1724.896 101.300 L 1721.980 101.300 L 1719.064 101.300 L 1716.148 101.300 L 1713.232 101.300 L 1710.316 101.300 L 1707.400 101.300 L 1704.484 101.300 L 1701.569 101.300 L 1698.653 101.300 L 1695.737 101.300 L 1692.821 101.300 L 1689.905 101.300 L 1686.989 101.300 L 1684.073 101.300 L 1681.157 101.300 L 1678.242 101.300 L 1675.326 101.300 L 1672.410 101.300 L 1669.494 101.300 L 1666.578 101.300 L 1663.662 101.300 L 1660.746 101.300 L 1657.830 101.300 L 1654.915 101.300 L 1651.999 101.300 L 1649.083 101.300 L 1646.167 101.300 L 1643.251 101.300 L 1640.335 101.300 L 1637.419 101.300 L 1634.503 101.300 L 1631.587 101.300 L 1628.672 101.300 L 1625.756 101.300 L 1622.840 101.300 L 1619.924 101.300 L 1617.008 101.300 L 1614.092 101.300 L 1611.176 101.300 L 1608.260 101.300 L 1605.345 101.300 L 1602.429 101.300 L 1599.513 101.300 L 1596.597 101.300 L 1593.681 101.300 L 1590.765 101.300 L 1587.849 101.300 L 1584.933 101.300 L 1582.017 101.300 L 1579.102 101.300 L 1576.186 101.300 L 1573.270 101.300 L 1570.354 101.300 L 1567.438 101.300 L 1564.522 101.300 L 1561.606 101.300 L 1558.690 101.300 L 1555.775 101.300 L 1552.859 101.300 L 1549.943 101.300 L 1547.027 101.300 L 1544.111 101.300 L 1541.195 101.300 L 1538.279 101.300 L 1535.363 101.300 L 1532.448 101.300 L 1529.532 101.300 L 1526.616 101.300 L 1523.700 101.300 L 1520.784 101.300 L 1517.868 101.300 L 1514.952 101.300 L 1512.036 101.300 L 1509.120 101.300 L 1506.205 101.300 L 1503.289 101.300 L 1500.373 101.300 L 1497.457 101.300 L 1494.541 101.300 L 1491.625 101.300 L 1488.709 101.300 L 1485.793 101.300 L 1482.878 101.300 L 1479.962 101.300 L 1477.046 101.300 L 1474.130 101.300 L 1471.214 101.300 L 1468.298 101.300 L 1465.382 101.300 L 1462.466 101.300 L 1459.551 101.300 L 1456.635 101.300 L 1453.719 101.300 L 1450.803 101.300 L 1447.887 101.300 L 1444.971 101.300 L 1442.055 101.300 L 1439.139 101.300 L 1436.223 101.300 L 1433.308 101.300 L 1430.392 101.300 L 1427.476 101.300 L 1424.560 101.300 L 1421.644 101.300 L 1418.728 101.300 L 1415.812 101.300 L 1412.896 101.300 L 1409.981 101.300 L 1407.065 101.300 L 1404.149 101.300 L 1401.233 101.300 L 1398.317 101.300 L 1395.401 101.300 L 1392.485 101.300 L 1389.569 101.300 L 1386.654 101.300 L 1383.738 101.300 L 1380.822 101.300 L 1377.906 101.300 L 1374.990 101.300 L 1372.074 101.300 L 1369.158 101.300 L 1366.242 101.300 L 1363.326 101.300 L 1360.411 101.300 L 1357.495 101.300 L 1354.579 101.300 L 1351.663 101.300 L 1348.747 101.300 L 1345.831 101.300 L 1342.915 101.300 L 1339.999 101.300 L 1337.084 101.300 L 1334.168 101.300 L 1331.252 101.300 L 1328.336 101.300 L 1325.420 101.300 L 1322.504 101.300 L 1319.588 101.300 L 1316.672 101.300 L 1313.757 101.300 L 1310.841 101.300 L 1307.925 101.300 L 1305.009 101.300 L 1302.093 101.300 L 1299.177 101.300 L 1296.261 101.300 L 1293.345 101.300 L 1290.429 101.300 L 1287.514 101.300 L 1284.598 101.300 L 1281.682 101.300 L 1278.766 101.300 L 1275.850 101.300 L 1272.934 101.300 L 1270.018 101.300 L 1267.102 101.300 L 1264.187 101.300 L 1261.271 101.300 L 1258.355 101.300 L 1255.439 101.300 L 1252.523 101.300 L 1249.607 101.300 L 1246.691 101.300 L 1243.775 101.300 L 1240.860 101.300 L 1237.944 101.300 L 1235.028 101.300 L 1232.112 101.300 L 1229.196 101.300 L 1226.280 101.300 L 1223.364 101.300 L 1220.448 101.300 L 1217.532 101.300 L 1214.617 101.300 L 1211.701 101.300 L 1208.785 101.300 L 1205.869 101.300 L 1202.953 101.300 L 1200.037 101.300 L 1197.121 101.300 L 1194.205 101.300 L 1191.290 101.300 L 1188.374 101.300 L 1185.458 101.300 L 1182.542 101.300 L 1179.626 101.300 L 1176.710 101.300 L 1173.794 101.308 L 1170.878 101.328 L 1167.963 101.361 L 1165.047 101.406 L 1162.132 101.463 L 1159.217 101.533 L 1156.302 101.616 L 1153.388 101.712 L 1150.474 101.821 L 1147.561 101.944 L 1144.648 102.080 L 1141.736 102.231 L 1138.825 102.396 L 1135.915 102.575 L 1133.005 102.770 L 1130.097 102.979 L 1127.190 103.204 L 1124.284 103.444 L 1121.379 103.701 L 1118.476 103.973 L 1115.574 104.262 L 1112.675 104.567 L 1109.777 104.889 L 1106.881 105.228 L 1103.987 105.584 L 1101.095 105.958 L 1098.205 106.350 L 1095.318 106.760 L 1092.434 107.188 L 1089.553 107.635 L 1086.674 108.101 L 1083.799 108.585 L 1080.927 109.089 L 1078.059 109.613 L 1075.194 110.158 L 1072.334 110.724 L 1069.477 111.310 L 1066.625 111.915 L 1063.777 112.540 L 1060.933 113.184 L 1058.093 113.847 L 1055.258 114.529 L 1052.428 115.229 L 1049.602 115.946 L 1046.780 116.682 L 1043.963 117.434 L 1041.150 118.204 L 1038.342 118.990 L 1035.539 119.792 L 1032.741 120.611 L 1029.947 121.445 L 1027.157 122.295 L 1024.373 123.160 L 1021.593 124.039 L 1018.817 124.934 L 1016.046 125.842 L 1013.280 126.764 L 1010.519 127.700 L 1007.762 128.649 L 1005.009 129.611 L 1002.261 130.586 L 999.517 131.573 L 996.778 132.574 L 994.045 133.588 L 991.316 134.616 L 988.593 135.658 L 985.874 136.713 L 983.161 137.782 L 980.454 138.864 L 977.751 139.959 L 975.054 141.068 L 972.363 142.190 L 969.678 143.326 L 966.998 144.475 L 964.324 145.638 L 961.656 146.814 L 958.993 148.003 L 956.337 149.206 L 953.687 150.423 L 951.043 151.653 L 948.406 152.896 L 945.775 154.153 L 943.150 155.423 L 940.532 156.706 L 937.920 158.003 L 935.315 159.313 L 932.717 160.637 L 930.126 161.974 L 927.542 163.325 L 924.964 164.689 L 922.394 166.066 L 919.831 167.456 L 917.275 168.859 L 914.726 170.274 L 912.186 171.706 L 909.656 173.157 L 907.138 174.626 L 904.630 176.114 L 902.133 177.620 L 899.647 179.143 L 897.172 180.685 L 894.707 182.243 L 892.254 183.819 L 889.811 185.412 L 887.380 187.021 L 884.960 188.647 L 882.550 190.289 L 880.152 191.948 L 877.764 193.622 L 875.388 195.312 L 873.023 197.017 L 870.669 198.738 L 868.326 200.473 L 865.993 202.223 L 863.672 203.988 L 861.362 205.768 L 859.063 207.561 L 856.775 209.369 L 854.498 211.190 L 852.232 213.025 L 849.977 214.873 L 847.732 216.735 L 845.499 218.610 L 843.279 220.500 L 841.072 222.405 L 838.877 224.325 L 836.696 226.260 L 834.527 228.209 L 832.370 230.171 L 830.226 232.147 L 828.093 234.135 L 825.971 236.135 L 823.861 238.148 L 821.761 240.171 L 819.672 242.205 L 817.593 244.249 L 815.524 246.304 L 813.464 248.367 L 811.413 250.440 L 809.371 252.522 L 807.337 254.611 L 805.311 256.708 L 803.293 258.813 L 801.282 260.924 L 799.278 263.042 L 797.280 265.166 L 795.288 267.296 L 793.302 269.431 L 791.322 271.571 L 789.346 273.715 L 787.374 275.864 L 785.407 278.016 L 783.442 280.170 L 781.482 282.329 L 779.529 284.494 L 777.582 286.665 L 775.641 288.841 L 773.705 291.021 L 771.774 293.206 L 769.846 295.394 L 767.922 297.585 L 766.001 299.779 L 764.083 301.974 L 762.165 304.171 L 760.249 306.369 L 758.334 308.567 L 756.418 310.765 L 754.501 312.963 L 752.583 315.159 L 750.663 317.354 L 748.741 319.546 L 746.815 321.736 L 744.886 323.922 L 742.952 326.105 L 741.014 328.283 L 739.070 330.456 L 737.119 332.624 L 735.163 334.786 L 733.199 336.941 L 731.227 339.089 L 729.247 341.230 L 727.258 343.362 L 725.259 345.485 L 723.246 347.595 L 721.216 349.688 L 719.171 351.766 L 717.110 353.828 L 715.033 355.875 L 712.941 357.906 L 710.834 359.922 L 708.712 361.922 L 706.575 363.906 L 704.424 365.874 L 702.257 367.825 L 700.076 369.760 L 697.880 371.679 L 695.671 373.581 L 693.446 375.467 L 691.208 377.336 L 688.956 379.188 L 686.689 381.022 L 684.409 382.840 L 682.116 384.640 L 679.808 386.423 L 677.488 388.188 L 675.154 389.936 L 672.806 391.666 L 670.446 393.378 L 668.073 395.072 L 665.687 396.748 L 663.288 398.406 L 660.877 400.045 L 658.451 401.664 L 656.010 403.258 L 653.551 404.826 L 651.076 406.368 L 648.585 407.883 L 646.078 409.371 L 643.555 410.833 L 641.016 412.267 L 638.462 413.674 L 635.893 415.053 L 633.309 416.405 L 630.711 417.728 L 628.098 419.023 L 625.472 420.289 L 622.832 421.527 L 620.178 422.736 L 617.512 423.915 L 614.833 425.066 L 612.141 426.187 L 609.437 427.278 L 606.721 428.340 L 603.994 429.372 L 601.256 430.374 L 598.507 431.346 L 595.747 432.288 L 592.978 433.199 L 590.198 434.080 L 587.409 434.931 L 584.610 435.749 L 581.803 436.535 L 578.987 437.294 L 576.165 438.026 L 573.336 438.734 L 570.501 439.417 L 567.661 440.075 L 564.815 440.709 L 561.964 441.320 L 559.108 441.909 L 556.247 442.474 L 553.382 443.018 L 550.514 443.540 L 547.641 444.042 L 544.765 444.522 L 541.886 444.983 L 539.004 445.425 L 536.119 445.847 L 533.231 446.251 L 530.341 446.637 L 527.448 447.005 L 524.554 447.356 L 521.657 447.690 L 518.759 448.009 L 515.858 448.311 L 512.957 448.599 L 510.054 448.871 L 507.149 449.130 L 504.244 449.374 L 501.337 449.606 L 498.429 449.824 L 495.521 450.034 L 492.613 450.247 L 489.706 450.469 L 486.799 450.701 L 483.893 450.941 L 480.988 451.193 L 478.084 451.454 L 475.181 451.727 L 472.279 452.012 L 469.378 452.309 L 466.479 452.618 L 463.581 452.941 L 460.684 453.277 L 457.790 453.628 L 454.897 453.993 L 452.006 454.373 L 449.117 454.769 L 446.230 455.181 L 443.346 455.609 L 440.464 456.055 L 437.586 456.519 L 434.710 457.000 L 431.837 457.501 L 428.968 458.020 L 426.102 458.559 L 423.241 459.119 L 420.383 459.699 L 417.530 460.300 L 414.681 460.924 L 411.838 461.569 L 409.000 462.238 L 406.169 462.937 L 403.347 463.669 L 400.532 464.432 L 397.726 465.225 L 394.929 466.048 L 392.140 466.899 L 389.360 467.778 L 386.589 468.685 L 383.826 469.619 L 381.073 470.579 L 378.329 471.565 L 375.594 472.576 L 372.869 473.613 L 370.153 474.673 L 367.446 475.757 L 364.749 476.865 L 362.061 477.995 L 359.382 479.147 L 356.713 480.321 L 354.053 481.516 L 351.403 482.732 L 348.763 483.969 L 346.131 485.225 L 343.509 486.501 L 340.897 487.796 L 338.294 489.110 L 335.700 490.442 L 333.116 491.792 L 330.540 493.160 L 327.974 494.545 L 325.420 495.951 L 322.880 497.383 L 320.356 498.843 L 317.848 500.330 L 315.356 501.844 L 312.881 503.385 L 310.422 504.952 L 307.980 506.546 L 305.555 508.165 L 303.147 509.809 L 300.756 511.478 L 298.383 513.173 L 296.027 514.891 L 293.690 516.634 L 291.370 518.401 L 289.069 520.192 L 286.787 522.006 L 284.522 523.844 L 282.277 525.704 L 280.051 527.587 L 277.844 529.492 L 275.656 531.420 L 273.488 533.370 L 271.339 535.341 L 269.210 537.334 L 267.102 539.348 L 265.014 541.383 L 262.946 543.439 L 260.899 545.516 L 258.875 547.614 L 256.873 549.734 L 254.895 551.876 L 252.940 554.040 L 251.010 556.226 L 249.105 558.433 L 247.224 560.661 L 245.370 562.911 L 243.541 565.182 L 241.738 567.474 L 239.962 569.787 L 238.214 572.120 L 236.493 574.474 L 234.800 576.848 L 233.135 579.242 L 231.499 581.655 L 229.892 584.088 L 228.315 586.541 L 226.768 589.012 L 225.250 591.502 L 223.764 594.010 L 222.308 596.537 L 220.883 599.081 L 219.490 601.642 L 218.128 604.221 L 216.799 606.816 L 215.501 609.427 L 214.238 612.055 L 213.010 614.700 L 211.815 617.359 L 210.651 620.033 L 209.516 622.718 L 208.409 625.416 L 207.331 628.125 L 206.278 630.845 L 205.252 633.574 L 204.249 636.312 L 203.270 639.058 L 202.313 641.813 L 201.376 644.574 L 200.460 647.342 L 199.562 650.116 L 198.681 652.896 L 197.817 655.681 L 196.969 658.471 L 196.134 661.264 L 195.312 664.062 L 194.502 666.863 L 193.702 669.667 L 192.912 672.474 L 192.130 675.283 L 191.355 678.094 L 190.586 680.907 L 189.822 683.721 L 189.062 686.536 L 188.303 689.351 L 187.546 692.167 L 186.789 694.983 L 186.029 697.798 L 185.269 700.613 L 184.508 703.428 L 183.746 706.243 L 182.984 709.057 L 182.222 711.872 L 181.460 714.686 L 180.699 717.501 L 179.937 720.316 L 179.176 723.130 L 178.416 725.946 L 177.656 728.761 L 176.896 731.576 L 176.136 734.391 L 175.377 737.206 L 174.618 740.021 L 173.859 742.837 L 173.100 745.652 L 172.342 748.468 L 171.583 751.283 L 170.825 754.099 L 170.066 756.914 L 169.308 759.730 L 168.549 762.545 L 167.790 765.360 L 167.030 768.176 L 166.270 770.991 L 165.510 773.806 L 164.750 776.621 L 163.991 779.436 L 163.232 782.252 L 162.474 785.067 L 161.715 787.883 L 160.957 790.698 L 160.200 793.514 L 159.442 796.330 L 158.684 799.146 L 157.926 801.961 L 157.168 804.777 L 156.410 807.592 L 155.652 810.408 L 154.894 813.224 L 154.135 816.039 L 153.376 818.854 L 152.617 821.670 L 151.859 824.485 L 151.102 827.301 L 150.345 830.117 L 149.589 832.933 L 148.832 835.749 L 148.075 838.565 L 147.318 841.381 L 146.561 844.197 L 145.805 847.013 L 145.048 849.829 L 144.291 852.645 L 143.534 855.461 L 142.777 858.277 L 142.021 861.093 L 141.264 863.909 L 140.507 866.725 L 139.750 869.541 L 138.991 872.356 L 138.232 875.171 L 137.473 877.987 L 136.714 880.802 L 135.956 883.618 L 135.198 886.433 L 134.440 889.249 L 133.683 892.065 L 132.925 894.881 L 132.167 897.696 L 131.409 900.512 L 130.651 903.327 L 129.892 906.143 L 129.132 908.958 L 128.372 911.773 L 127.610 914.587 L 126.848 917.402 L 126.086 920.217 L 125.325 923.031 L 124.564 925.846 L 123.804 928.661 L 123.045 931.477 L 122.287 934.292 L 121.530 937.108 L 120.771 939.924 L 120.015 942.740 L 119.274 945.560 L 118.532 948.380 L 117.767 951.193 L 116.986 954.003 L 116.220 956.816 L 115.473 959.635 L 114.742 962.458 L 114.027 965.284 L 113.327 968.115 L 112.642 970.949 L 111.973 973.787 L 111.318 976.629 L 110.680 979.474 L 110.058 982.323 L 109.452 985.175 L 108.864 988.031 L 108.294 990.890 L 107.742 993.754 L 107.210 996.621 L 106.699 999.491 L 106.210 1002.366 L 105.743 1005.244 L 105.302 1008.126 L 104.886 1011.012 L 104.499 1013.902 L 104.142 1016.796 L 103.818 1019.694 L 103.530 1022.596 L 103.281 1025.501 L 103.075 1028.409 L 102.917 1031.321 L 102.812 1034.235 L 102.767 1037.150 L 102.791 1040.066 L 102.894 1042.979 L 103.088 1045.888 L 103.384 1048.789 L 103.785 1051.676 L 104.289 1054.548 L 104.899 1057.399 L 105.610 1060.226 L 106.420 1063.027 L 107.326 1065.798 L 108.328 1068.536 L 109.425 1071.237 L 110.614 1073.899 L 111.897 1076.517 L 113.272 1079.088 L 114.739 1081.607 L 116.297 1084.071 L 117.946 1086.476 L 119.685 1088.815 L 121.515 1091.085 L 123.434 1093.279 L 125.442 1095.393 L 127.538 1097.419 L 129.719 1099.353 L 131.984 1101.188 L 134.331 1102.917 L 136.756 1104.535 L 139.256 1106.034 L 141.829 1107.405 L 144.468 1108.643 L 147.164 1109.751 L 149.908 1110.736 L 152.691 1111.604 L 155.506 1112.362 L 158.347 1113.014 L 161.210 1113.569 L 164.088 1114.031 L 166.978 1114.417 L 169.873 1114.769 L 172.768 1115.120 L 175.662 1115.471 L 178.557 1115.822 L 181.451 1116.174 L 184.346 1116.527 L 187.240 1116.879 L 190.135 1117.232 L 193.029 1117.585 L 195.924 1117.939 L 198.818 1118.292 L 201.712 1118.646 L 204.607 1119.000 L 207.501 1119.355 L 210.395 1119.709 L 213.289 1120.064 L 216.184 1120.419 L 219.078 1120.774 L 221.972 1121.128 L 224.866 1121.484 L 227.760 1121.839 L 230.655 1122.194 L 233.549 1122.549 L 236.443 1122.904 L 239.337 1123.259 L 242.231 1123.615 L 245.125 1123.970 L 248.020 1124.325 L 250.914 1124.679 L 253.808 1125.034 L 256.702 1125.389 L 259.596 1125.743 L 262.491 1126.098 L 265.385 1126.452 L 268.279 1126.806 L 271.174 1127.160 L 274.068 1127.513 L 276.962 1127.866 L 279.857 1128.219 L 282.751 1128.572 L 285.646 1128.924 L 288.540 1129.276 L 291.435 1129.628 L 294.330 1129.979 L 297.224 1130.330 L 300.119 1130.681 L 303.014 1131.031 L 305.909 1131.380 L 308.804 1131.729 L 311.699 1132.078 L 314.594 1132.426 L 317.489 1132.774 L 320.384 1133.121 L 323.279 1133.467 L 326.174 1133.813 L 329.070 1134.159 L 331.965 1134.503 L 334.861 1134.847 L 337.756 1135.191 L 340.652 1135.534 L 343.548 1135.876 L 346.444 1136.217 L 349.339 1136.559 L 352.235 1136.903 L 355.130 1137.248 L 358.026 1137.592 L 360.921 1137.936 L 363.817 1138.279 L 366.713 1138.622 L 369.608 1138.964 L 372.504 1139.305 L 375.400 1139.646 L 378.296 1139.986 L 381.192 1140.326 L 384.088 1140.665 L 386.984 1141.004 L 389.880 1141.342 L 392.777 1141.680 L 395.673 1142.017 L 398.569 1142.354 L 401.466 1142.690 L 404.362 1143.025 L 407.259 1143.361 L 410.155 1143.695 L 413.052 1144.030 L 415.949 1144.364 L 418.846 1144.697 L 421.742 1145.030 L 424.639 1145.363 L 427.536 1145.695 L 430.433 1146.027 L 433.330 1146.359 L 436.227 1146.690 L 439.124 1147.021 L 442.021 1147.352 L 444.918 1147.682 L 447.815 1148.012 L 450.713 1148.342 L 453.610 1148.671 L 456.507 1149.000 L 459.404 1149.329 L 462.302 1149.658 L 465.199 1149.986 L 468.096 1150.314 L 470.994 1150.642 L 473.891 1150.970 L 476.788 1151.297 L 479.686 1151.625 L 482.583 1151.952 L 485.481 1152.279 L 488.378 1152.606 L 491.276 1152.933 L 494.173 1153.259 L 497.071 1153.586 L 499.969 1153.912 L 502.866 1154.238 L 505.764 1154.564 L 508.661 1154.891 L 511.559 1155.217 L 514.456 1155.543 L 517.354 1155.869 L 520.252 1156.192 L 523.150 1156.511 L 526.049 1156.828 L 528.948 1157.144 L 531.846 1157.461 L 534.745 1157.778 L 537.643 1158.094 L 540.542 1158.411 L 543.441 1158.728 L 546.339 1159.045 L 549.238 1159.362 L 552.137 1159.679 L 555.035 1159.995 L 557.934 1160.312 L 560.832 1160.629 L 563.731 1160.946 L 566.630 1161.263 L 569.528 1161.580 L 572.427 1161.897 L 575.325 1162.214 L 578.224 1162.531 L 581.123 1162.848 L 584.021 1163.165 L 586.920 1163.481 L 589.818 1163.798 L 592.717 1164.115 L 595.616 1164.432 L 598.514 1164.748 L 601.413 1165.065 L 604.312 1165.382 L 607.210 1165.700 L 610.108 1166.021 L 613.007 1166.341 L 615.905 1166.661 L 618.803 1166.980 L 621.702 1167.298 L 624.600 1167.617 L 627.499 1167.935 L 630.397 1168.253 L 633.296 1168.570 L 636.194 1168.888 L 639.093 1169.205 L 641.991 1169.522 L 644.890 1169.838 L 647.789 1170.155 L 650.687 1170.472 L 653.586 1170.788 L 656.485 1171.105 L 659.383 1171.421 L 662.282 1171.738 L 665.180 1172.054 L 668.079 1172.371 L 670.978 1172.687 L 673.876 1173.004 L 676.775 1173.321 L 679.674 1173.639 L 682.572 1173.956 L 685.471 1174.274 L 688.369 1174.592 L 691.268 1174.910 L 694.166 1175.229 L 697.064 1175.548 L 699.963 1175.867 L 702.861 1176.187 L 705.759 1176.508 L 708.657 1176.828 L 711.556 1177.147 L 714.454 1177.465 L 717.353 1177.784 L 720.251 1178.103 L 723.149 1178.421 L 726.048 1178.739 L 728.946 1179.058 L 731.845 1179.376 L 734.743 1179.694 L 737.642 1180.012 L 740.540 1180.330 L 743.439 1180.648 L 746.337 1180.966 L 749.236 1181.284 L 752.134 1181.601 L 755.033 1181.919 L 757.931 1182.236 L 760.830 1182.553 L 763.729 1182.870 L 766.627 1183.186 L 769.526 1183.503 L 772.425 1183.819 L 775.323 1184.135 L 778.222 1184.450 L 781.121 1184.766 L 784.020 1185.081 L 786.919 1185.396 L 789.817 1185.711 L 792.716 1186.025 L 795.615 1186.339 L 798.514 1186.653 L 801.413 1186.966 L 804.312 1187.280 L 807.211 1187.592 L 810.110 1187.905 L 813.009 1188.217 L 815.909 1188.529 L 818.808 1188.840 L 821.707 1189.155 L 824.605 1189.473 L 827.503 1189.792 L 830.402 1190.111 L 833.300 1190.429 L 836.199 1190.748 L 839.097 1191.067 L 841.996 1191.385 L 844.894 1191.704 L 847.792 1192.022 L 850.691 1192.341 L 853.589 1192.659 L 856.488 1192.977 L 859.386 1193.295 L 862.285 1193.613 L 865.183 1193.931 L 868.082 1194.249 L 870.980 1194.566 L 873.879 1194.883 L 876.777 1195.201 L 879.676 1195.518 L 882.575 1195.834 L 885.473 1196.151 L 888.372 1196.467 L 891.271 1196.783 L 894.169 1197.099 L 897.068 1197.414 L 899.967 1197.730 L 902.866 1198.044 L 905.765 1198.359 L 908.664 1198.673 L 911.563 1198.987 L 914.462 1199.301 L 917.361 1199.614 L 920.260 1199.927 L 923.159 1200.239 L 926.058 1200.551 L 928.957 1200.863 L 931.856 1201.174 L 934.755 1201.488 L 937.654 1201.802 L 940.553 1202.116 L 943.452 1202.432 L 946.351 1202.747 L 949.249 1203.063 L 952.148 1203.379 L 955.047 1203.695 L 957.945 1204.012 L 960.844 1204.329 L 963.742 1204.646 L 966.641 1204.963 L 969.540 1205.281 L 972.438 1205.598 L 975.337 1205.916 L 978.235 1206.234 L 981.134 1206.551 L 984.032 1206.869 L 986.931 1207.187 L 989.829 1207.505 L 992.728 1207.823 L 995.626 1208.140 L 998.525 1208.458 L 1001.423 1208.775 L 1004.322 1209.092 L 1007.220 1209.409 L 1010.119 1209.726 L 1013.018 1210.043 L 1015.916 1210.359 L 1018.815 1210.675 L 1021.714 1210.991 L 1024.613 1211.306 L 1027.511 1211.621 L 1030.410 1211.935 L 1033.309 1212.250 L 1036.208 1212.566 L 1039.106 1212.884 L 1042.005 1213.203 L 1044.903 1213.522 L 1047.802 1213.841 L 1050.700 1214.159 L 1053.598 1214.478 L 1056.497 1214.796 L 1059.395 1215.114 L 1062.294 1215.433 L 1065.192 1215.751 L 1068.091 1216.068 L 1070.989 1216.386 L 1073.888 1216.703 L 1076.787 1217.020 L 1079.685 1217.336 L 1082.584 1217.652 L 1085.483 1217.968 L 1088.381 1218.283 L 1091.280 1218.598 L 1094.179 1218.912 L 1097.078 1219.226 L 1099.977 1219.539 L 1102.876 1219.852 L 1105.775 1220.164 L 1108.675 1220.475 L 1111.574 1220.786 L 1114.473 1221.096 L 1117.373 1221.405 L 1120.272 1221.718 L 1123.170 1222.037 L 1126.069 1222.355 L 1128.967 1222.674 L 1131.865 1222.993 L 1134.764 1223.311 L 1137.662 1223.630 L 1140.561 1223.949 L 1143.459 1224.267 L 1146.357 1224.586 L 1149.256 1224.905 L 1152.154 1225.223 L 1155.053 1225.542 L 1157.951 1225.861 L 1160.849 1226.179 L 1163.748 1226.498 L 1166.646 1226.817 L 1169.545 1227.135 L 1172.443 1227.454 L 1175.341 1227.774 L 1178.239 1228.098 L 1181.137 1228.426 L 1184.035 1228.748 L 1186.934 1229.061 L 1189.834 1229.364 L 1192.735 1229.653 L 1195.638 1229.925 L 1198.543 1230.180 L 1201.449 1230.419 L 1204.357 1230.632 L 1207.267 1230.816 L 1210.179 1230.966 L 1213.093 1231.080 L 1216.008 1231.153 L 1218.923 1231.182 L 1221.839 1231.163 L 1224.754 1231.086 L 1227.665 1230.935 L 1230.572 1230.705 L 1233.472 1230.402 L 1236.363 1230.026 L 1239.244 1229.579 L 1242.114 1229.062 L 1244.970 1228.476 L 1247.812 1227.824 L 1250.638 1227.107 L 1253.447 1226.326 L 1256.238 1225.482 L 1259.010 1224.577 L 1261.762 1223.613 L 1264.493 1222.591 L 1267.201 1221.512 L 1269.887 1220.377 L 1272.550 1219.189 L 1275.188 1217.947 L 1277.801 1216.654 L 1280.389 1215.311 L 1282.951 1213.918 L 1285.485 1212.477 L 1287.993 1210.988 L 1290.472 1209.453 L 1292.922 1207.873 L 1295.343 1206.248 L 1297.734 1204.579 L 1300.095 1202.868 L 1302.426 1201.116 L 1304.727 1199.326 L 1306.995 1197.493 L 1309.228 1195.618 L 1311.423 1193.699 L 1313.579 1191.736 L 1315.693 1189.728 L 1317.764 1187.675 L 1319.788 1185.576 L 1321.763 1183.432 L 1323.687 1181.241 L 1325.558 1179.004 L 1327.372 1176.722 L 1329.127 1174.393 L 1330.820 1172.020 L 1332.449 1169.601 L 1334.011 1167.139 L 1335.503 1164.635 L 1336.924 1162.089 L 1338.270 1159.503 L 1339.541 1156.878 L 1340.733 1154.218 L 1341.846 1151.523 L 1342.877 1148.796 L 1343.826 1146.039 L 1344.691 1143.255 L 1345.473 1140.446 L 1346.175 1137.616 L 1346.812 1134.771 L 1347.394 1131.913 L 1347.924 1129.046 L 1348.406 1126.170 L 1348.845 1123.288 L 1349.245 1120.400 L 1349.611 1117.507 L 1349.947 1114.610 L 1350.258 1111.711 L 1350.548 1108.810 L 1350.822 1105.907 L 1351.084 1103.003 L 1351.339 1100.098 L 1351.591 1097.193 L 1351.846 1094.288 L 1352.106 1091.384 L 1352.378 1088.481 L 1352.665 1085.579 L 1352.969 1082.679 L 1353.280 1079.780 L 1353.590 1076.881 L 1353.900 1073.981 L 1354.210 1071.082 L 1354.519 1068.182 L 1354.828 1065.283 L 1355.137 1062.383 L 1355.445 1059.484 L 1355.754 1056.584 L 1356.062 1053.685 L 1356.369 1050.785 L 1356.677 1047.886 L 1356.984 1044.986 L 1357.291 1042.086 L 1357.598 1039.187 L 1357.904 1036.287 L 1358.210 1033.387 L 1358.516 1030.487 L 1358.822 1027.587 L 1359.127 1024.688 L 1359.433 1021.788 L 1359.737 1018.888 L 1360.042 1015.988 L 1360.346 1013.088 L 1360.650 1010.188 L 1360.954 1007.288 L 1361.258 1004.388 L 1361.561 1001.488 L 1361.864 998.588 L 1362.167 995.688 L 1362.469 992.787 L 1362.771 989.887 L 1363.073 986.987 L 1363.375 984.087 L 1363.676 981.187 L 1363.977 978.286 L 1364.278 975.386 L 1364.578 972.486 L 1364.879 969.585 L 1365.179 966.685 L 1365.478 963.784 L 1365.778 960.884 L 1366.077 957.983 L 1366.376 955.083 L 1366.674 952.182 L 1366.973 949.282 L 1367.271 946.381 L 1367.568 943.480 L 1367.864 940.580 L 1368.156 937.678 L 1368.449 934.777 L 1368.742 931.876 L 1369.034 928.975 L 1369.326 926.074 L 1369.617 923.172 L 1369.907 920.271 L 1370.197 917.370 L 1370.486 914.468 L 1370.774 911.566 L 1371.062 908.665 L 1371.348 905.763 L 1371.632 902.861 L 1371.916 899.959 L 1372.198 897.057 L 1372.479 894.154 L 1372.758 891.252 L 1373.036 888.349 L 1373.311 885.446 L 1373.585 882.543 L 1373.857 879.640 L 1374.127 876.737 L 1374.395 873.833 L 1374.661 870.930 L 1374.924 868.026 L 1375.185 865.121 L 1375.443 862.217 L 1375.699 859.312 L 1375.952 856.408 L 1376.202 853.502 L 1376.449 850.597 L 1376.691 847.691 L 1376.929 844.785 L 1377.166 841.879 L 1377.404 838.973 L 1377.644 836.067 L 1377.890 833.161 L 1378.142 830.256 L 1378.402 827.352 L 1378.673 824.449 L 1378.956 821.547 L 1379.253 818.646 L 1379.567 815.747 L 1379.899 812.850 L 1380.251 809.956 L 1380.626 807.064 L 1381.026 804.176 L 1381.452 801.291 L 1381.908 798.411 L 1382.395 795.536 L 1382.915 792.667 L 1383.470 789.805 L 1384.063 786.950 L 1384.695 784.103 L 1385.370 781.267 L 1386.088 778.441 L 1386.852 775.627 L 1387.664 772.826 L 1388.525 770.040 L 1389.437 767.271 L 1390.402 764.520 L 1391.421 761.788 L 1392.496 759.077 L 1393.627 756.390 L 1394.815 753.727 L 1396.061 751.091 L 1397.365 748.483 L 1398.728 745.906 L 1400.150 743.360 L 1401.630 740.848 L 1403.168 738.371 L 1404.764 735.930 L 1406.416 733.528 L 1408.123 731.164 L 1409.885 728.841 L 1411.699 726.558 L 1413.565 724.317 L 1415.479 722.118 L 1417.440 719.961 L 1419.449 717.847 L 1421.503 715.777 L 1423.601 713.753 L 1425.743 711.775 L 1427.928 709.845 L 1430.153 707.960 L 1432.411 706.115 L 1434.707 704.318 L 1437.043 702.572 L 1439.415 700.877 L 1441.824 699.234 L 1444.267 697.642 L 1446.743 696.103 L 1449.251 694.615 L 1451.788 693.179 L 1454.355 691.795 L 1456.948 690.463 L 1459.568 689.183 L 1462.212 687.953 L 1464.879 686.774 L 1467.567 685.646 L 1470.276 684.568 L 1473.005 683.539 L 1475.751 682.558 L 1478.513 681.626 L 1481.292 680.742 L 1484.085 679.905 L 1486.891 679.114 L 1489.710 678.369 L 1492.541 677.669 L 1495.382 677.013 L 1498.233 676.400 L 1501.093 675.831 L 1503.960 675.303 L 1506.832 674.798 L 1509.701 674.280 L 1512.569 673.752 L 1515.436 673.220 L 1518.303 672.688 L 1521.171 672.162 L 1524.041 671.645 L 1526.912 671.136 L 1529.782 670.622 L 1532.652 670.107 L 1535.522 669.592 L 1538.392 669.077 L 1541.262 668.563 L 1544.132 668.048 L 1547.003 667.533 L 1549.873 667.018 L 1552.743 666.504 L 1555.613 665.989 L 1558.483 665.474 L 1561.353 664.959 L 1564.223 664.445 L 1567.093 663.930 L 1569.963 663.415 L 1572.833 662.900 L 1575.703 662.386 L 1578.573 661.871 L 1581.444 661.356 L 1584.314 660.841 L 1587.184 660.327 L 1590.054 659.812 L 1592.924 659.297 L 1595.794 658.782 L 1598.664 658.268 L 1601.534 657.753 L 1604.404 657.238 L 1607.274 656.724 L 1610.144 656.209 L 1613.015 655.694 L 1615.885 655.179 L 1618.755 654.665 L 1621.625 654.150 L 1624.495 653.635 L 1627.365 653.120 L 1630.235 652.606 L 1633.105 652.091 L 1635.975 651.576 L 1638.845 651.061 L 1641.715 650.547 L 1644.585 650.032 L 1647.456 649.517 L 1650.326 649.003 L 1653.196 648.488 L 1656.066 647.973 L 1658.936 647.458 L 1661.806 646.944 L 1664.676 646.429 L 1667.546 645.914 L 1670.416 645.400 L 1673.286 644.885 L 1676.156 644.370 L 1679.027 643.855 L 1681.897 643.341 L 1684.767 642.826 L 1687.637 642.311 L 1690.507 641.797 L 1693.377 641.282 L 1696.247 640.767 L 1699.117 640.252 L 1701.987 639.738 L 1704.857 639.223 L 1707.728 638.708 L 1710.598 638.194 L 1713.468 637.679 L 1716.338 637.164 L 1719.208 636.649 L 1722.078 636.135 L 1724.948 635.620 L 1727.818 635.105 L 1730.688 634.591 L 1733.558 634.076 L 1736.428 633.561 L 1739.299 633.047 L 1742.169 632.532 L 1745.039 632.017 L 1747.909 631.503 L 1750.779 630.988 L 1753.649 630.473 L 1756.519 629.958 L 1759.389 629.444 L 1762.259 628.929 L 1765.129 628.414 L 1768.000 627.900 L 1770.870 627.385 L 1773.740 626.870 L 1776.610 626.356 L 1779.480 625.841 L 1782.350 625.326 L 1785.220 624.812 L 1788.090 624.297 L 1790.960 623.782 L 1793.830 623.268 L 1796.701 622.753 L 1799.571 622.239 L 1802.441 621.724 L 1805.311 621.209 L 1808.181 620.695 L 1811.051 620.180 L 1813.921 619.665 L 1816.791 619.151 L 1819.661 618.636 L 1822.531 618.121 L 1825.402 617.607 L 1828.272 617.092 L 1831.142 616.578 L 1834.012 616.063 L 1836.882 615.548 L 1839.752 615.034 L 1842.622 614.519 L 1845.492 614.005 L 1848.362 613.490 L 1851.233 612.975 L 1854.103 612.461 L 1856.973 611.946 L 1859.843 611.432 L 1862.713 610.917 L 1865.583 610.403 L 1868.453 609.888 L 1871.323 609.374 L 1874.194 608.859 L 1877.064 608.345 L 1879.934 607.830 L 1882.804 607.316 L 1885.674 606.801 L 1888.544 606.287 L 1891.414 605.772 L 1894.285 605.258 L 1897.155 604.744 L 1900.025 604.229 L 1902.895 603.715 L 1905.765 603.201 L 1908.636 602.687 L 1911.506 602.174 L 1914.378 601.669 L 1917.257 601.207 L 1920.145 600.808 L 1923.041 600.473 L 1925.945 600.204 L 1928.854 600.003 L 1931.766 599.871 L 1934.681 599.810 L 1937.597 599.824 L 1940.511 599.913 L 1943.422 600.082 L 1946.327 600.333 L 1949.223 600.668 L 1952.108 601.091 L 1954.978 601.605 L 1957.830 602.213 L 1960.659 602.918 L 1963.461 603.723 L 1966.232 604.631 L 1968.965 605.645 L 1971.657 606.766 L 1974.301 607.994 L 1976.900 609.315 L 1979.455 610.720 L 1981.963 612.208 L 1984.421 613.776 L 1986.827 615.422 L 1989.179 617.145 L 1991.474 618.943 L 1993.711 620.814 L 1995.886 622.755 L 1997.998 624.766 L 2000.043 626.844 L 2002.020 628.986 L 2003.927 631.192 L 2005.760 633.459 L 2007.518 635.786 L 2009.198 638.169 L 2010.798 640.606 L 2012.313 643.097 L 2013.736 645.642 L 2015.061 648.239 L 2016.312 650.873 L 2017.471 653.548 L 2018.552 656.256 L 2019.562 658.991 L 2020.491 661.755 L 2021.299 664.556 L 2022.016 667.382 L 2022.638 670.231 L 2023.165 673.098 L 2023.593 675.982 L 2023.921 678.880 L 2024.145 681.787 L 2024.264 684.700 L 2024.274 687.615 L 2024.174 690.529 L 2023.962 693.437 L 2023.635 696.334 L 2023.192 699.216 L 2022.630 702.077 L 2021.948 704.911 L 2021.168 707.721 L 2020.299 710.504 L 2019.348 713.260 L 2018.323 715.990 L 2017.232 718.694 L 2016.080 721.372 L 2014.876 724.028 L 2013.626 726.662 L 2012.337 729.278 L 2011.015 731.877 L 2009.668 734.463 L 2008.301 737.038 L 2006.922 739.607 L 2005.542 742.176 L 2004.163 744.746 L 2002.782 747.314 L 2001.400 749.881 L 2000.016 752.448 L 1998.631 755.014 L 1997.247 757.580 L 1995.863 760.146 L 1994.480 762.713 L 1993.098 765.281 L 1991.719 767.850 L 1990.342 770.421 L 1988.965 772.991 L 1987.586 775.560 L 1986.204 778.128 L 1984.821 780.695 L 1983.437 783.261 L 1982.051 785.827 L 1980.665 788.392 L 1979.279 790.957 L 1977.892 793.522 L 1976.505 796.087 L 1975.119 798.653 L 1973.734 801.219 L 1972.350 803.785 L 1970.968 806.353 L 1969.587 808.921 L 1968.209 811.490 L 1966.831 814.060 L 1965.451 816.629 L 1964.071 819.198 L 1962.691 821.766 L 1961.311 824.335 L 1959.931 826.903 L 1958.550 829.472 L 1957.169 832.040 L 1955.787 834.607 L 1954.405 837.175 L 1953.022 839.742 L 1951.638 842.309 L 1950.254 844.875 L 1948.868 847.441 L 1947.482 850.006 L 1946.095 852.571 L 1944.707 855.135 L 1943.317 857.698 L 1941.927 860.262 L 1940.541 862.827 L 1939.162 865.396 L 1937.782 867.965 L 1936.402 870.533 L 1935.022 873.102 L 1933.642 875.671 L 1932.262 878.239 L 1930.881 880.808 L 1929.501 883.376 L 1928.120 885.944 L 1926.738 888.512 L 1925.356 891.079 L 1923.974 893.647 L 1922.591 896.214 L 1921.208 898.781 L 1919.824 901.348 L 1918.440 903.914 L 1917.055 906.480 L 1915.670 909.046 L 1914.285 911.612 L 1912.903 914.179 L 1911.521 916.747 L 1910.140 919.315 L 1908.759 921.883 L 1907.379 924.452 L 1905.999 927.020 L 1904.619 929.589 L 1903.239 932.158 L 1901.859 934.727 L 1900.480 937.295 L 1899.099 939.864 L 1897.719 942.432 L 1896.338 945.000 L 1894.956 947.568 L 1893.574 950.136 L 1892.190 952.702 L 1890.804 955.267 L 1889.414 957.831 L 1888.023 960.393 L 1886.631 962.955 L 1885.239 965.518 L 1883.850 968.082 L 1882.464 970.647 L 1881.082 973.214 L 1879.706 975.785 L 1878.336 978.360 L 1876.975 980.938 L 1875.624 983.522 L 1874.283 986.111 L 1872.954 988.707 L 1871.638 991.309 L 1870.337 993.918 L 1869.052 996.536 L 1867.784 999.162 L 1866.539 1001.798 L 1865.326 1004.450 L 1864.144 1007.115 L 1862.996 1009.796 L 1861.882 1012.491 L 1860.805 1015.200 L 1859.766 1017.924 L 1858.765 1020.663 L 1857.806 1023.417 L 1856.889 1026.184 L 1856.015 1028.967 L 1855.188 1031.763 L 1854.409 1034.572 L 1853.679 1037.395 L 1853.000 1040.231 L 1852.374 1043.079 L 1851.804 1045.938 L 1851.292 1048.809 L 1850.838 1051.689 L 1850.446 1054.578 L 1850.118 1057.476 L 1849.854 1060.380 L 1849.658 1063.289 L 1849.532 1066.202 L 1849.476 1069.117 L 1849.493 1072.033 L 1849.585 1074.947 L 1849.753 1077.858 L 1849.998 1080.763 L 1850.323 1083.661 L 1850.722 1086.549 L 1851.193 1089.427 L 1851.737 1092.292 L 1852.356 1095.141 L 1853.051 1097.972 L 1853.825 1100.784 L 1854.678 1103.572 L 1855.613 1106.334 L 1856.631 1109.066 L 1857.735 1111.764 L 1858.926 1114.426 L 1860.206 1117.046 L 1861.576 1119.619 L 1863.037 1122.142 L 1864.591 1124.609 L 1866.239 1127.015 L 1867.980 1129.354 L 1869.814 1131.620 L 1871.741 1133.808 L 1873.759 1135.913 L 1875.865 1137.929 L 1878.058 1139.850 L 1880.333 1141.673 L 1882.686 1143.396 L 1885.099 1145.033 L 1887.560 1146.596 L 1890.067 1148.085 L 1892.617 1149.498 L 1895.209 1150.834 L 1897.840 1152.090 L 1900.510 1153.263 L 1903.215 1154.351 L 1905.954 1155.350 L 1908.725 1156.258 L 1911.525 1157.069 L 1914.353 1157.779 L 1917.205 1158.384 L 1920.079 1158.878 L 1922.970 1159.256 L 1925.874 1159.512 L 1928.787 1159.640 L 1931.703 1159.636 L 1934.616 1159.518 L 1937.529 1159.379 L 1940.441 1159.241 L 1943.354 1159.102 L 1946.266 1158.963 L 1949.179 1158.824 L 1952.092 1158.685 L 1955.004 1158.546 L 1957.917 1158.408 L 1960.829 1158.269 L 1963.742 1158.130 L 1966.654 1157.991 L 1969.567 1157.852 L 1972.480 1157.714 L 1975.392 1157.575 L 1978.305 1157.436 L 1981.217 1157.297 L 1984.130 1157.159 L 1987.043 1157.020 L 1989.955 1156.881 L 1992.868 1156.742 L 1995.780 1156.603 L 1998.693 1156.465 L 2001.605 1156.326 L 2004.518 1156.187 L 2007.431 1156.048 L 2010.343 1155.910 L 2013.256 1155.771 L 2016.168 1155.632 L 2019.081 1155.493 L 2021.993 1155.355 L 2024.906 1155.216 L 2027.819 1155.077 L 2030.731 1154.938 L 2033.644 1154.800 L 2036.556 1154.661 L 2039.469 1154.522 L 2042.381 1154.383 L 2045.294 1154.245 L 2048.207 1154.106 L 2051.119 1153.967 L 2054.032 1153.828 L 2056.944 1153.690 L 2059.857 1153.551 L 2062.770 1153.412 L 2065.682 1153.273 L 2068.595 1153.135 L 2071.507 1152.996 L 2074.420 1152.857 L 2077.332 1152.719 L 2080.245 1152.580 L 2083.158 1152.441 L 2086.070 1152.302 L 2088.983 1152.164 L 2091.895 1152.025 L 2094.808 1151.886 L 2097.720 1151.748 L 2100.633 1151.609 L 2103.546 1151.470 L 2106.458 1151.332 L 2109.371 1151.193 L 2112.283 1151.054 L 2115.196 1150.916 L 2118.109 1150.777 L 2121.021 1150.638 L 2123.934 1150.499 L 2126.846 1150.361 L 2129.759 1150.222 L 2132.671 1150.083 L 2135.584 1149.945 L 2138.497 1149.806 L 2141.409 1149.667 L 2144.322 1149.529 L 2147.234 1149.390 L 2150.147 1149.251 L 2153.060 1149.113 L 2155.972 1148.974 L 2158.885 1148.835 L 2161.797 1148.697 L 2164.710 1148.558 L 2167.622 1148.419 L 2170.535 1148.281 L 2173.448 1148.142 L 2176.360 1148.004 L 2179.273 1147.865 L 2182.185 1147.726 L 2185.098 1147.588 L 2188.010 1147.449 L 2190.923 1147.310 L 2193.836 1147.172 L 2196.748 1147.033 L 2199.661 1146.895 L 2202.573 1146.756 L 2205.486 1146.617 L 2208.399 1146.479 L 2211.311 1146.340 L 2214.224 1146.201 L 2217.136 1146.063 L 2220.049 1145.924 L 2222.961 1145.786 L 2225.874 1145.647 L 2228.787 1145.508 L 2231.699 1145.370 L 2234.612 1145.231 L 2237.524 1145.093 L 2240.437 1144.954 L 2243.350 1144.815 L 2246.262 1144.677 L 2249.175 1144.538 L 2252.087 1144.400 L 2255.000 1144.261 L 2257.913 1144.123 L 2260.825 1143.984 L 2263.738 1143.845 L 2266.650 1143.707 L 2269.563 1143.568 L 2272.475 1143.430 L 2275.388 1143.291 L 2278.301 1143.153 L 2281.213 1143.014 L 2284.126 1142.876 L 2287.038 1142.737 L 2289.951 1142.599 L 2292.864 1142.460 L 2295.776 1142.321 L 2298.689 1142.183 L 2301.601 1142.044 L 2304.514 1141.906 L 2307.427 1141.767 L 2310.339 1141.629 L 2313.252 1141.490 L 2316.164 1141.352 L 2319.077 1141.213 L 2321.989 1141.075 L 2324.902 1140.936 L 2327.815 1140.798 L 2330.727 1140.659 L 2333.640 1140.521 L 2336.552 1140.382 L 2339.465 1140.244 L 2342.378 1140.105 L 2345.290 1139.967 L 2348.203 1139.829 L 2351.115 1139.690 L 2354.028 1139.552 L 2356.941 1139.413 L 2359.853 1139.275 L 2362.766 1139.136 L 2365.678 1138.998 L 2368.591 1138.859 L 2371.503 1138.721 L 2374.416 1138.582 L 2377.329 1138.444 L 2380.241 1138.306 L 2383.154 1138.167 L 2386.066 1138.029 L 2388.979 1137.890 L 2391.892 1137.752 L 2394.804 1137.614 L 2397.717 1137.475 L 2400.629 1137.337 L 2403.542 1137.198 L 2406.455 1137.060 L 2409.367 1136.922 L 2412.280 1136.783 L 2415.192 1136.645 L 2418.105 1136.507 L 2421.018 1136.368 L 2423.930 1136.230 L 2426.843 1136.092 L 2429.755 1135.953 L 2432.668 1135.815 L 2435.581 1135.677 L 2438.493 1135.538 L 2441.406 1135.400 L 2444.318 1135.262 L 2447.231 1135.123 L 2450.144 1134.985 L 2453.056 1134.847 L 2455.969 1134.708 L 2458.881 1134.570 L 2461.794 1134.432 L 2464.707 1134.294 L 2467.619 1134.155 L 2470.532 1134.017 L 2473.444 1133.879 L 2476.357 1133.741 L 2479.270 1133.602 L 2482.182 1133.464 L 2485.095 1133.326 L 2488.007 1133.188 L 2490.920 1133.050 L 2493.833 1132.911 L 2496.745 1132.773 L 2499.658 1132.635 L 2502.570 1132.497 L 2505.483 1132.359 L 2508.396 1132.221 L 2511.308 1132.082 L 2514.221 1131.944 L 2517.133 1131.806 L 2520.046 1131.668 L 2522.959 1131.530 L 2525.871 1131.392 L 2528.784 1131.254 L 2531.696 1131.116 L 2534.609 1130.978 L 2537.522 1130.840 L 2540.434 1130.702 L 2543.347 1130.564 L 2546.260 1130.426 L 2549.172 1130.288 L 2552.085 1130.150 L 2554.997 1130.012 L 2557.910 1129.874 L 2560.823 1129.736 L 2563.735 1129.598 L 2566.648 1129.460 L 2569.560 1129.322 L 2572.473 1129.184 L 2575.386 1129.046 L 2578.298 1128.909 L 2581.211 1128.771 L 2584.124 1128.633 L 2587.036 1128.495 L 2589.949 1128.357 L 2592.861 1128.220 L 2595.774 1128.082 L 2598.687 1127.944 L 2601.599 1127.807 L 2604.512 1127.669 L 2607.425 1127.531 L 2610.337 1127.394 L 2613.250 1127.256 L 2616.162 1127.119 L 2619.075 1126.981 L 2621.988 1126.844 L 2624.900 1126.706 L 2627.813 1126.569 L 2630.726 1126.432 L 2633.638 1126.294 L 2636.551 1126.157 L 2639.464 1126.020 L 2642.376 1125.883 L 2645.289 1125.746 L 2648.202 1125.609 L 2651.114 1125.472 L 2654.027 1125.335 L 2656.940 1125.198 L 2659.852 1125.061 L 2662.765 1124.925 L 2665.678 1124.788 L 2668.590 1124.652 L 2671.503 1124.516 L 2674.416 1124.380 L 2677.328 1124.244 L 2680.241 1124.109 L 2683.154 1123.974 L 2686.067 1123.839 L 2688.980 1123.705 L 2691.892 1123.573 L 2694.805 1123.442 L 2697.718 1123.313 L 2700.631 1123.184 L 2703.544 1123.056 L 2706.458 1122.929 L 2709.371 1122.801 L 2712.284 1122.669 L 2715.196 1122.532 L 2718.109 1122.389 L 2721.021 1122.238 L 2723.932 1122.077 L 2726.843 1121.904 L 2729.753 1121.731 L 2732.665 1121.577 L 2735.577 1121.428 L 2738.490 1121.283 L 2741.402 1121.138 L 2744.314 1120.992 L 2747.226 1120.841 L 2750.138 1120.684 L 2753.049 1120.519 L 2755.959 1120.342 L 2758.869 1120.152 L 2761.778 1119.946 L 2764.685 1119.721 L 2767.590 1119.476 L 2770.494 1119.208 L 2773.395 1118.914 L 2776.293 1118.593 L 2779.188 1118.241 L 2782.078 1117.856 L 2784.964 1117.436 L 2787.843 1116.979 L 2790.716 1116.481 L 2793.582 1115.941 L 2796.438 1115.356 L 2799.285 1114.723 L 2802.120 1114.042 L 2804.942 1113.308 L 2807.749 1112.520 L 2810.541 1111.677 L 2813.314 1110.775 L 2816.069 1109.821 L 2818.805 1108.812 L 2821.516 1107.740 L 2824.203 1106.606 L 2826.863 1105.412 L 2829.496 1104.160 L 2832.101 1102.850 L 2834.678 1101.484 L 2837.224 1100.063 L 2839.739 1098.589 L 2842.224 1097.062 L 2844.676 1095.485 L 2847.096 1093.858 L 2849.482 1092.181 L 2851.830 1090.453 L 2854.142 1088.676 L 2856.416 1086.851 L 2858.650 1084.977 L 2860.845 1083.057 L 2862.998 1081.091 L 2865.109 1079.080 L 2867.177 1077.024 L 2869.201 1074.925 L 2871.180 1072.784 L 2873.113 1070.600 L 2875.015 1068.390 L 2876.885 1066.153 L 2878.719 1063.886 L 2880.511 1061.586 L 2882.258 1059.251 L 2883.954 1056.879 L 2885.592 1054.467 L 2887.169 1052.014 L 2888.676 1049.518 L 2890.108 1046.978 L 2891.459 1044.394 L 2892.720 1041.765 L 2893.884 1039.092 L 2894.945 1036.376 L 2895.886 1033.616 L 2896.710 1030.819 L 2897.422 1027.991 L 2898.026 1025.138 L 2898.527 1022.266 L 2898.928 1019.378 L 2899.237 1016.478 L 2899.457 1013.571 L 2899.593 1010.658 L 2899.651 1007.743 L 2899.635 1004.827 L 2899.550 1001.912 L 2899.401 999.000 L 2899.100 996.100 Z" fill="none" stroke="black" stroke-width="55.938" stroke-linejoin="round" stroke-linecap="round"/></svg>