<svg xmlns="http://www.w3.org/2000/svg" viewBox="71.294 -6.560 568.044 590.508" width="100%" height="100%"><circle cx="246.690" cy="465.190" r="1.015" fill="red"/><text x="246.690" y="465.190" font-size="5.073" fill="blue" dx="2" dy="2">0</text><circle cx="211.896" cy="472.405" r="1.015" fill="red"/><text x="211.896" y="472.405" font-size="5.073" fill="blue" dx="2" dy="2">200</text><circle cx="205.834" cy="405.452" r="1.015" fill="red"/><text x="205.834" y="405.452" font-size="5.073" fill="blue" dx="2" dy="2">400</text><circle cx="117.630" cy="247.996" r="1.015" fill="red"/><text x="117.630" y="247.996" font-size="5.073" fill="blue" dx="2" dy="2">600</text><circle cx="200.927" cy="103.384" r="1.015" fill="red"/><text x="200.927" y="103.384" font-size="5.073" fill="blue" dx="2" dy="2">800</text><circle cx="331.739" cy="39.487" r="1.015" fill="red"/><text x="331.739" y="39.487" font-size="5.073" fill="blue" dx="2" dy="2">1000</text><circle cx="478.358" cy="97.065" r="1.015" fill="red"/><text x="478.358" y="97.065" font-size="5.073" fill="blue" dx="2" dy="2">1200</text><circle cx="583.510" cy="93.278" r="1.015" fill="red"/><text x="583.510" y="93.278" font-size="5.073" fill="blue" dx="2" dy="2">1400</text><circle cx="513.213" cy="235.850" r="1.015" fill="red"/><text x="513.213" y="235.850" font-size="5.073" fill="blue" dx="2" dy="2">1600</text><circle cx="409.794" cy="326.786" r="1.015" fill="red"/><text x="409.794" y="326.786" font-size="5.073" fill="blue" dx="2" dy="2">1800</text><circle cx="259.785" cy="451.426" r="1.015" fill="red"/><text x="259.785" y="451.426" font-size="5.073" fill="blue" dx="2" dy="2">2000</text><circle cx="246.690" cy="465.190" r="3.044" fill="green"/></svg>